<svg xmlns="http://www.w3.org/2000/svg"><defs><font id="Fraunces" horiz-adv-x="1265"><font-face font-family="Fraunces Black" units-per-em="2000" ascent="1956" descent="-510" alphabetic="0"/><glyph horiz-adv-x="407"/><glyph unicode="!" horiz-adv-x="688" d="M344 1505q131 0 192-58t62-158q0-29-5-64t-17-78L429 606q-13-48-32-71t-53-23q-34 0-52 23t-33 71l-147 542q-12 42-17 77t-6 64q0 99 62 157t193 59ZM343-30q-66 0-120 33t-85 90-31 120q0 67 31 121t85 87 120 33q67 0 121-32t85-87 32-122q0-64-31-120T464 4 343-30Z"/><glyph unicode="&quot;" horiz-adv-x="896" d="M666 781q-30 0-54 22t-32 65l-83 426q-26 136 20 208t162 72q118 0 161-74t15-205l-93-429q-9-44-33-64t-63-21Zm-457 0q-30 0-54 22t-32 65l-83 426q-26 136 20 208t162 72q118 0 161-74t15-205l-93-429q-9-44-33-64t-63-21Z"/><glyph unicode="#" horiz-adv-x="1369" d="M535 687q-10-39-23-91t-28-111-30-120-31-119-28-111-23-90q-21-69-90-53-34 10-46 32t-4 56q10 36 25 85t35 106 39 118 40 119 35 111 27 93q11 40 23 93t26 113 26 122 25 121 25 110 21 85q21 68 90 52 35-9 47-31t3-56q-10-39-24-89t-32-108-36-118-35-119-31-110-26-90Zm190 301q42 0 97 2t116 5 122 6 112 5 89 3q36 0 57-16t23-49q-1-34-22-51t-59-18q-38 0-91 2t-113 4-121 5-115 4-96 2q-42-1-97-2t-118-3-124-3-116-2-94-1q-37-1-58 16t-22 50q0 34 21 50t59 17q38 0 91-2t115-7 124-8 120-7 100-2Zm-68-545q-42 0-97-1t-118-3-124-3-116-3-94-1q-37 0-57 17t-22 50q0 34 21 50t58 17q38 0 91-2t115-7 124-9 119-6 101-3q42 0 97 2t117 5 121 6 112 6 89 3q36 0 57-17t23-49q-1-34-22-50t-59-19q-39 1-92 2t-113 4-120 5-115 4-96 2ZM774 45q-21-69-90-53-34 10-46 32t-4 56q10 36 25 85t35 106 39 118 40 119 35 111 28 93q11 40 23 93t26 113 26 122 25 121 25 109 21 85q19 70 89 53 35-9 47-32t2-56q-10-38-24-88t-32-108-35-119-35-119-31-109-26-90q-10-39-23-91t-28-111-31-120-30-119-28-111-23-90Z"/><glyph unicode="$" horiz-adv-x="1260" d="M664 1394q169 0 285-42t177-118 61-174q0-76-45-131t-119-55q-85 0-141 48t-57 127v97q0 81-46 130t-129 49q-54 0-97-21t-68-64-25-103q0-58 27-105t93-88 176-78q175-60 272-127t138-145 40-166q0-130-70-225T934 56 616 4Q434 4 312 47T128 164 66 325q0 79 47 129t132 51q74 0 127-50t54-135v-85q0-70 52-114t142-44q94 0 151 46t57 125q0 87-65 151T522 523q-160 56-255 120T129 788 86 969q0 119 70 215t199 153 309 57Zm26-627h-71q0 137-6 248t-15 203-14 166-7 139q0 41 21 63t56 22q33 0 55-22t23-65q0-59-6-132t-15-164-14-204-7-254ZM590 665h70q0-139 6-252t15-205 14-165 7-134q0-41-21-63t-57-22q-33 0-55 22t-22 65q0 64 6 138t15 165 15 202 7 249Z"/><glyph unicode="%" horiz-adv-x="1735" d="M461 1433q173 0 281-100t109-275q0-134-52-225T656 695t-205-47q-191 0-296 101T49 1041q0 178 111 285t301 107Zm79-397q0 174-23 242t-66 68q-47 0-69-69t-22-220q0-183 24-252t70-70q25 0 44 25t30 91 12 185Zm434-261q-20-25-35-31t-41 6q-19 11-21 27t9 45q14 30 36 76t48 102 53 112 53 108 46 90 32 58q30 46 71 58t91-14q48-26 55-65t-21-86q-12-19-38-54t-60-81-74-96-77-99-71-89-56-67ZM762 631q22 25 38 31t41-4q20-12 21-29t-12-45q-13-30-34-76t-48-102-53-113-53-109-46-90-32-58q-30-45-71-57T422-7q-47 25-55 64t22 86q12 19 37 54t61 82 74 97 77 99 70 90 54 66Zm535 118q173 0 281-100t109-275q0-134-52-225T1492 11t-205-47q-191 0-296 101T885 357q0 178 111 285t301 107Zm79-397q0 174-23 242t-66 68q-47 0-69-69t-22-220q0-183 24-252t70-70q25 0 44 25t30 91 12 185Z"/><glyph unicode="&amp;" horiz-adv-x="2023" d="M1319-49q200 0 342 73t217 210 75 330q0 206-79 392t-230 332q-139 133-335 208t-415 75q-264 0-444-73t-272-205-92-309q0-110 52-180t146-70q80 0 131 48t52 127q0 47-10 81t-23 65-23 62-10 72q0 77 48 139t155 99 282 36q198 0 373-69t297-190q135-133 203-302t68-336q0-148-42-244t-115-142-161-46q-65 0-119 30t-117 104-147 202q-73 106-118 194t-66 170-22 166q0 81 24 132t59 51q28 0 42-49t15-128q0-88-19-153t-51-102-72-36l16-62q141 0 244 39t159 112 57 169q0 90-47 159t-131 108-194 40q-142 0-242-59t-154-161-54-227q0-105 24-204t73-198 120-207q61-94 137-154t173-90 220-29Zm-85 302 31-65q215 69 313 184t98 246q0 95-40 149t-116 54q-73 0-119-53t-47-126q0-33 8-58t16-54 8-72q0-35-16-71t-50-71-86-63ZM640 617v79q-180 0-309-47T133 517 64 318q0-169 110-257t314-89q104 0 182 18t132 52 89 79l-53 82q-31-33-63-48t-77-15q-83 0-133 69t-50 177q0 69 15 121t44 81 66 29Z"/><glyph unicode="'" horiz-adv-x="439" d="M209 781q-30 0-54 22t-32 65l-83 426q-26 136 20 208t162 72q118 0 161-74t15-205l-93-429q-9-44-33-64t-63-21Z"/><glyph unicode="(" horiz-adv-x="799" d="M149 609q0 216 68 391t184 296 255 169q89 31 112 1 13-16 5-38t-40-63q-66-86-120-203t-87-257-32-296q0-155 32-295t86-258 121-203q32-40 40-62t-5-38q-23-31-112 0-140 49-255 169T218 218t-69 391Z"/><glyph unicode=")" horiz-adv-x="799" d="M650 609q0-216-68-391T398-78 143-247q-89-31-112-1-13 16-5 38t40 63q66 86 120 203t87 257 32 296q0 155-32 295t-86 258-121 203q-32 40-40 62t5 38q23 31 112 0 140-49 255-169t183-296 69-391Z"/><glyph unicode="*" horiz-adv-x="1246" d="M645 992h-38q0 74-26 130t-60 106-61 95-27 98q0 146 193 146 91 0 142-37t52-109q0-52-26-98t-61-95-61-105-27-131Zm-12 16-13-34q-70 23-133 17t-121-25-111-28-104 5q-138 46-78 226 29 86 79 121t119 14q50-16 87-54t73-86 84-90 118-66Zm-22-7 31-21q-43-60-56-121t-14-121-8-111-38-95q-84-118-242-7-74 53-93 112t21 118q32 41 81 63t106 42 113 51 99 90Zm0-21 31 21q44-59 99-90t113-50 106-42 81-64q84-119-72-230-73-53-137-52t-105 59q-31 42-37 94t-8 112-14 120-57 122Zm9 28q71 23 118 65t83 90 74 86 86 55q139 44 199-136 28-84 9-143t-87-82q-50-16-103-6t-112 29-121 24-133-16l-13 34Z"/><glyph unicode="+" horiz-adv-x="1141" d="M105 682q0 36 21 57t50 21h791q28 0 48-21t21-57q0-36-20-56t-49-20H175q-27 0-48 20t-22 56Zm460-450q-36 0-57 21t-21 50v791q0 28 21 48t57 21q36 0 56-20t20-49V302q0-27-20-48t-56-22Z"/><glyph unicode="," horiz-adv-x="677" d="M315-21q-107 0-158 57t-52 146q0 98 67 164t168 66q109 0 183-77t75-235q0-102-26-184t-76-145-124-105-171-65q-52-12-80-3t-35 32q-6 26 11 47t67 36q92 27 147 62t81 77 25 91q0 17-9 26t-32 10h-61Z"/><glyph unicode="-" horiz-adv-x="796" d="M678 685q96 0 59-102l-31-88q-16-47-39-64t-60-18H118q-96 0-59 102l31 88q17 48 39 65t61 17h488Z"/><glyph unicode="." horiz-adv-x="652" d="M325-30q-66 0-119 33t-85 90-32 120q0 67 31 121t85 87 120 33q68 0 121-32t85-87 32-122q0-64-31-120T447 4 325-30Z"/><glyph unicode="/" horiz-adv-x="1014" d="M585 575q-24-53-52-122t-58-146-60-156T356-4t-55-140-48-112q-20-43-63-53t-98 15q-55 25-75 65t0 83Q39-99 71-38t71 132 80 145 81 147 74 138 59 119q25 53 53 122t58 146 59 157 59 155 55 140 48 111q21 43 64 53t97-15q55-25 75-64t0-84q-21-46-53-108t-72-133-80-145-81-147-74-138-59-118Z"/><glyph unicode="0" horiz-adv-x="1457" d="M735 1439q211 0 359-85t225-252 78-405q0-225-83-390T1079 51 722-39q-211 0-359 86T138 298 60 703q0 225 83 390t235 256 357 90Zm191-790q0 247-22 394t-68 213-116 66q-64 0-106-56t-62-182-20-333q0-247 22-394t67-213 116-66q64 0 106 56t62 182 21 333Z"/><glyph unicode="1" horiz-adv-x="1019" d="M170 1170h62q35 0 50-17t15-68V248q0-40-15-60t-45-28l-100-22q-65-16-65-71 0-31 21-49t65-18h727q38 0 57 18t19 49q0 56-55 70l-89 23q-27 7-42 27t-15 61v1105q0 78-79 78-24 0-46-5t-49-20q-82-40-150-61t-170-21h-90q-42 0-66-22t-25-55q0-34 20-55t65-22Z"/><glyph unicode="2" horiz-adv-x="1331" d="m260 339-66 51 183 94q109 55 185 128t115 172 40 229q0 120-13 192t-39 104-62 32q-51 0-71-46t-21-127v-140q0-92-56-147t-157-56q-95 0-151 59t-57 165q0 102 59 191t184 144 318 55q190 0 311-52t180-146 59-213q0-106-60-196T955 660 630 494L260 339ZM59 179q0 119 92 189t269 71q79 0 149-9t136-22 137-21 147-10q68 0 109 25t75 82q16 25 34 35t40 8q25-2 38-24t10-70q-13-171-60-274T1111 8 928-39q-84 0-146 23T674 62t-77 149q-16 49-29 64t-35 15q-24 0-40-22t-21-75q-7-86-36-137t-77-73-115-22q-80 0-132 59T59 179Z"/><glyph unicode="3" horiz-adv-x="1234" d="m585 726-33 33q20 6 42 9t49 6 54 3q144 0 252-43t169-125 61-195q0-138-70-240T909 17 597-39Q423-39 307 3T134 119 76 287q0 96 63 157t155 62q100 0 150-52t51-139V207q0-59 26-100t74-42q47 0 80 28t51 92 18 166q0 153-48 218t-131 66h-71q-40 0-60 18t-20 52q0 25 11 44t41 46l443 385 11-121H390q-42 0-64-14t-31-47l-21-81q-7-28-26-45t-55-17q-35 0-57 19t-19 58l36 376q4 43 34 67t82 25h816q59 0 84-14t26-48q0-21-16-48t-68-76L585 726Z"/><glyph unicode="4" horiz-adv-x="1393" d="M653 606q0 28 9 48t27 36l279 249q26 24 43 31t34 7q23 0 36-13t13-43l2-692q0-31 13-46t36-23l69-24q31-11 47-27t16-42q0-31-20-49t-63-18H539q-84 0-84 66 0 52 62 70l89 24q24 7 35 21t12 46v379ZM401 805q53 46 78 87t26 82q0 35-12 66t-29 62-29 68-13 85q0 63 31 112t95 78 160 29q113 0 182-55t69-156q0-41-14-85t-58-103-135-139L174 417l-25 61h1079q36 0 58-14t22-46q0-69-82-69H114q-40 0-62 21t-23 57q0 19 13 41t47 53l312 284Z"/><glyph unicode="5" horiz-adv-x="1264" d="M79 282q0 97 63 160t158 64q98 0 148-54t50-139V172q0-46 26-80t78-35q62 0 102 74t40 235q0 179-60 258t-161 80q-31 0-59-8t-58-25-65-44q-30-24-51-33t-48-10q-28 0-50 16t-22 52v667q0 48 27 75t87 28q23 0 49-4t68-17q53-14 116-25t132-17 137-6q116 0 181 17t101 43q36 26 57 30t36-1q14-5 23-21t4-51q-18-143-76-229t-162-123-256-38q-84 0-171 10t-166 29-136 44l99 120V685l-59 18q58 53 115 84t125 46 158 14q157 0 274-51t183-147 66-226q0-149-74-252T898 15 583-39Q415-39 303 3T135 117 79 282Z"/><glyph unicode="6" horiz-adv-x="1345" d="M766 1439q155 0 262-43t163-113 56-153q0-101-60-156t-163-56q-103 0-159 52t-57 148v100q0 53-23 79t-70 26q-42 0-78-36t-63-117-41-215-15-329q0-218 23-338t61-166 83-47q75 0 117 75t43 240q0 149-52 225t-135 76q-43 0-82-19t-67-54-39-82l-71 35q7 73 65 137t155 105 215 41q139 0 240-47t156-139 55-226q0-143-72-251T1007 22 691-39q-202 0-343 85T134 288 60 654q0 245 84 421t243 270 379 94Z"/><glyph unicode="7" horiz-adv-x="1143" d="m829 1052 75-35H345q-42 0-60-13t-28-49l-27-105q-6-30-27-47t-55-17q-39 0-59 20t-18 59l29 445q2 40 28 65t71 25h858q58 0 88-25t30-66q0-25-16-53t-60-79L902 949q-78-91-124-150t-69-97-29-65-7-53q0-56 24-95t55-77 56-86 24-119q0-98-71-172T547-40q-135 0-218 74t-83 209q0 70 27 141t96 162 194 224l266 282Z"/><glyph unicode="8" horiz-adv-x="1379" d="M642-39Q444-39 322 7T144 133 88 313q0 80 50 144t160 104 285 49v-22q-29-38-38-107t-10-136q0-134 38-211t122-78q74 0 108 53t34 142q0 69-25 126t-90 103-181 75q-237 63-341 173T95 973q0 120 68 226t211 173 368 67q172 0 296-49t193-138 68-202q0-85-51-160t-164-125-303-57l-29 26q32 34 57 82t39 107 14 126q0 95-19 159t-59 97-101 34q-50 0-83-25t-49-70-16-103q0-92 32-161t106-119 203-89q219-65 324-164t106-229q0-120-77-214T1004 16 642-39Z"/><glyph unicode="9" horiz-adv-x="1345" d="M579-39Q424-39 317 4T154 118 98 270q0 101 61 156t162 56q103 0 159-52t57-149v-99q0-52 23-78t70-27q57 0 101 65t71 218 26 414q0 219-23 338t-61 166-83 47q-75 0-118-74t-43-235q0-143 52-217t135-75q44 0 83 17t68 49 37 74l71-20q-7-72-65-137T726 602t-215-40q-139 0-240 46T115 744 60 964q0 141 72 248t206 167 316 60q203 0 344-85t214-241 74-367q0-244-85-420T958 55 579-39Z"/><glyph unicode=":" horiz-adv-x="652" d="M325-30q-66 0-119 33t-85 90-32 120q0 67 31 121t85 87 120 33q68 0 121-32t85-87 32-122q0-64-31-120T447 4 325-30Zm0 568q-66 0-119 33t-85 90-32 120q0 67 31 121t85 87 120 33q68 0 121-32t85-87 32-122q0-64-31-120t-85-89-122-34Z"/><glyph unicode=";" horiz-adv-x="678" d="M338 536q-66 0-119 33t-85 90-32 120q0 67 31 121t85 87 120 33q68 0 121-32t85-87 32-122q0-64-31-120t-85-89-122-34ZM315-21q-107 0-158 57t-52 146q0 98 67 164t168 66q109 0 183-77t75-235q0-102-26-184t-76-145-124-105-171-65q-52-12-80-3t-35 32q-6 26 11 47t67 36q92 27 147 62t81 77 25 91q0 17-9 26t-32 10h-61Z"/><glyph unicode="&lt;" horiz-adv-x="1057" d="M293 700v-32l574 339q40 21 57 46t17 49q1 32-17 53t-60 21q-33 0-66-14t-83-40L169 804q-42-21-63-51t-22-69q0-39 21-69t64-52l550-320q49-24 82-38t67-15q40 0 58 21t18 54q0 22-17 48t-56 47L293 700Z"/><glyph unicode="=" horiz-adv-x="1141" d="M112 866q0 36 21 57t50 21h791q28 0 48-21t21-57q0-36-20-56t-49-20H182q-27 0-48 20t-22 56Zm0-362q0 36 21 57t50 21h791q28 0 48-21t21-57q0-36-20-56t-49-20H182q-27 0-48 20t-22 56Z"/><glyph unicode="&gt;" horiz-adv-x="1057" d="M757 668v32L183 361q-40-21-57-46t-17-49q-1-32 17-53t60-21q33 0 66 14t83 40l546 318q42 21 63 51t22 69q0 39-21 69t-64 52l-550 320q-49 24-82 38t-67 15q-40 0-58-21t-18-54q0-22 17-48t56-47l578-340Z"/><glyph unicode="?" horiz-adv-x="1213" d="m430 668 23-85q10-37 31-53t58-17q33 0 51 15t34 59l22 67q10 33 25 48t49 21l73 13q191 35 276 123t86 234q0 186-136 284t-427 98q-160 0-284-51t-195-135-71-188q0-100 57-155t150-55q110 0 168 65t59 184v94q0 59 28 89t74 31q56 0 81-52t25-149q0-137-20-211t-82-102l-71-29q-59-25-78-59t-6-84ZM533-30q-66 0-120 33t-85 90-31 120q0 67 31 121t85 87 120 33q68 0 121-32t85-87 32-122q0-64-31-120T655 4 533-30Z"/><glyph unicode="@" horiz-adv-x="1973" d="M1095 493q-21 9-37 14t-42 5q-39 0-68-31t-29-92q0-62 27-94t70-33q29 0 52 10t31 30l26-67q-40-69-125-106T820 92q-135 0-217 63t-83 165q0 122 116 197t341 75q56 0 85-6t63-24l-30-69Zm417-243q43 0 83 25t74 74 52 120 19 163q0 213-98 366t-265 237-376 83q-170 0-311-56t-243-158-157-241-56-308q0-234 98-410t272-273 401-98q185 0 351 58t326 204q33 31 58 37t44-10q17-15 12-41t-41-65q-70-77-178-144t-252-110-321-43q-196 0-363 61T351-101 160 182 91 555q0 184 67 343t191 279 291 187 370 68q182 0 340-53t278-156 186-251 67-338q0-160-55-282t-161-191-256-69q-91 1-159 20t-109 53-45 83l-33 7v603q0 37-16 62t-50 26q-28 0-46-17t-19-47v-68q0-80-60-125t-145-46q-67 0-119 33t-52 110q0 77 54 136t163 93 270 34q119 0 211-29t144-91 53-160V321q0-34 14-52t47-19Z"/><glyph unicode="A" horiz-adv-x="1570" d="M355 594h581l1-145H353l2 145ZM514 66q0-30-20-48T431 0H110Q68 0 48 18T27 66q0 22 10 37t34 30l21 13q33 20 52 50t41 103l257 831q18 59 13 86t-41 44q-28 14-39 31t-12 43q0 31 21 48t64 18h640q43 0 63-17t21-49q0-27-12-44t-36-28q-25-12-29-32t9-64l278-881q21-66 38-97t44-44q35-18 46-34t12-44q0-30-20-48t-64-18H909q-44 0-64 18t-20 48q0 25 12 40t39 27l32 15q26 12 23 32t-18 66l-296 979 42 31-288-932q-16-51-16-82t19-53 63-44l27-14q23-12 36-26t14-39Z"/><glyph unicode="B" horiz-adv-x="1545" d="M1510 335q0-150-129-242T980 0H172q-43 0-63 18T88 66q0 53 51 73l39 14q26 10 38 25t13 40v964q0 25-12 40t-39 25l-39 14q-51 20-51 73 0 31 20 48t64 18h631q196 0 336-52t215-145 76-218q0-101-60-178t-176-122-279-44l46 41q163 0 286-43t193-122 70-182ZM822 586H567v108h207q74 0 123 28t74 87 25 149q0 98-33 168t-95 108-148 39h-29V244q0-60 34-88t96-29h52q56 0 96 26t63 76 23 121q0 111-62 173t-171 63Z"/><glyph unicode="C" horiz-adv-x="1441" d="M1383 403q0-80-41-158t-120-143T1034-1 787-40q-224 0-387 93T148 312 59 693q0 161 53 297t148 237 223 157 276 56q93 0 151-16t93-33 59-17q29 0 48 16t38 31 50 15q24 0 40-16t27-53l103-356q9-31-7-55t-47-32q-33-7-60 5t-43 47q-51 121-112 188t-128 94-136 27q-73 0-130-35t-98-101-61-160-22-212q0-192 51-320t142-192 210-64q104 0 191 54t144 160q17 32 36 41t43 6q23-4 32-19t10-40Z"/><glyph unicode="D" horiz-adv-x="1669" d="M88 66q0 53 51 73l39 14q26 10 38 25t13 40v964q0 25-12 40t-39 25l-39 14q-51 20-51 73 0 31 20 48t64 18h620q184 0 334-55t259-155 167-238 59-305q0-187-89-333T1271 84 888 0H172q-43 0-63 18T88 66Zm743 74q85 0 154 52t109 165 41 296q0 144-26 256t-78 191-125 119-166 41h-48V249q0-57 29-83t83-26h27Z"/><glyph unicode="E" horiz-adv-x="1381" d="M519 780h260q63 0 90 25t48 97q10 33 28 47t44 15q52 0 65-58l79-317q9-36 0-57t-38-31q-27-10-51-3t-41 31q-32 47-59 71t-60 34-85 9H519v137ZM88 1334q0 31 20 48t64 18h759q46 0 75 9t56 18 61 9q44 0 66-25t39-81l85-285q11-35 1-58t-42-35q-35-12-62 0t-46 46q-44 81-83 132t-78 79-82 40-96 11H692V260q0-60 30-90t86-30h47q74 0 132 24t111 89 113 190q15 32 40 43t56 5q34-7 49-31t6-63l-94-327q-16-54-39-80t-70-26q-31 0-56 9t-55 18-76 9H172q-43 0-63 18T88 66q0 53 51 73l39 14q26 9 38 24t13 41v964q0 25-12 40t-39 25l-39 14q-51 20-51 73Z"/><glyph unicode="F" horiz-adv-x="1300" d="M901 1400q45 0 77 8t58 15 51 8q47 0 70-23t40-78l88-307q9-31-9-52t-51-26q-25-3-50 6t-42 42q-56 110-107 167t-107 78-121 22H692V218q0-25 11-42t40-23l61-13q31-7 45-24t14-50q0-30-20-48T779 0H172q-43 0-63 18T88 66q0 53 51 73l39 14q26 9 38 24t13 41v964q0 25-12 40t-39 25l-39 14q-51 20-51 73 0 31 20 48t64 18h729ZM527 739h267q65 0 92 25t53 102q10 29 27 41t41 12q57 0 70-54l78-320q9-36-2-55t-36-30q-28-9-52-1t-45 37q-30 41-56 64t-59 32-86 10H527v137Z"/><glyph unicode="G" horiz-adv-x="1566" d="M1401 38q0-39-19-58t-58-20q-33 0-60 17t-54 41-49 40-46 18q-23 0-52-17t-69-40-98-40-141-18q-164 0-293 52T243 162 106 394 59 699q0 159 55 294t155 235 233 155 289 56q100 0 162-16t100-32 65-17q29 0 48 15t39 31 50 16q24 0 40-16t27-53l103-358q8-30-8-54t-46-32q-33-8-60 4t-43 47q-52 123-117 190t-139 94-148 27q-107 0-183-62t-116-176-41-273q0-201 48-336t132-202 192-68q25 0 43 8t30 21 17 31 6 41v228q0 21-10 32t-41 20l-45 13q-30 9-47 25t-18 42q0 30 20 47t64 17h519q44 0 64-17t21-46q0-24-12-39t-39-26l-23-9q-20-8-32-21t-12-38V38Z"/><glyph unicode="H" horiz-adv-x="1800" d="M423 735h845V589H423v146Zm269-517q0-25 13-40t38-25l38-14q51-20 51-73 0-30-20-48T748 0H173q-43 0-63 18T89 66q0 53 51 73l38 14q26 9 38 24t13 41v964q0 25-12 40t-39 25l-38 14q-51 20-51 73 0 31 20 48t64 18h575q43 0 63-17t21-49q0-53-51-73l-38-14q-25-9-38-24t-13-41V218Zm879 0q0-25 13-40t38-25l38-14q51-20 51-73 0-30-20-48t-64-18h-576q-43 0-63 18t-21 48q0 53 51 73l39 14q26 9 38 24t13 41v964q0 25-12 40t-39 25l-39 14q-51 20-51 73 0 31 20 48t64 18h576q43 0 63-17t21-49q0-53-51-73l-38-14q-25-9-38-24t-13-41V218Z"/><glyph unicode="I" horiz-adv-x="920" d="M692 218q0-25 13-40t38-25l38-14q51-20 51-73 0-30-20-48T748 0H172q-43 0-63 18T88 66q0 53 51 73l39 14q26 9 38 24t13 41v964q0 25-12 40t-39 25l-39 14q-51 20-51 73 0 31 20 48t64 18h576q43 0 63-17t21-49q0-53-51-73l-38-14q-25-9-38-24t-13-41V218Z"/><glyph unicode="J" horiz-adv-x="1196" d="M1053 282q0-143-136-230T540-36q-231 0-360 84T50 279q0 102 56 164t152 63q84 0 138-58t55-165v-90q0-52 25-81t78-29q51 0 80 28t29 81q0 50-24 96t-55 99-56 125-24 170v500q0 26-11 42t-39 23l-60 13q-31 7-45 24t-14 50q0 31 20 48t64 18h604q43 0 63-17t21-49q0-53-51-73l-38-14q-25-10-38-25t-13-40V711q0-80 13-136t30-100 30-90 13-103Z"/><glyph unicode="K" horiz-adv-x="1725" d="m561 574 503 473q55 52 73 91t6 68-49 44l-29 13q-25 12-37 28t-13 43q0 31 20 48t64 18h443q43 0 63-17t21-49q0-27-15-41t-59-34q-14-6-30-15t-43-32-75-64-127-114L621 443l-60 131Zm195 124 356 296 459-771q24-40 42-56t38-22q27-14 38-34t11-45q0-30-20-48t-64-18h-566q-43 0-63 18t-21 49q0 26 12 43t30 25l27 10q18 7 18 25t-25 60L756 698Zm-64-480q0-25 9-40t32-25l29-14q30-15 40-31t11-42q0-30-20-48T729 0H172q-43 0-63 18T88 66q0 53 51 73l39 14q26 9 38 24t13 41v964q0 25-12 40t-39 25l-39 14q-51 20-51 73 0 31 20 48t64 18h576q43 0 63-17t21-49q0-53-51-73l-38-14q-25-9-38-24t-13-41V218Z"/><glyph unicode="L" horiz-adv-x="1330" d="m781 1261-38-14q-25-9-38-24t-13-41V214q0-41 19-57t57-17h77q52 0 92 15t75 56 74 120l69 143q16 34 41 45t58 1q34-9 47-31t3-62L1204 70q-16-54-39-80t-70-26q-26 0-51 9T986-9t-78 9H172q-43 0-63 18T88 66q0 53 51 73l39 14q26 9 38 24t13 41v964q0 25-12 40t-39 25l-39 14q-51 20-51 73 0 31 20 48t64 18h576q43 0 63-17t21-49q0-53-51-73Z"/><glyph unicode="M" horiz-adv-x="1966" d="m1064 483-143-22 298 806q28 76 65 104t102 29h390q43 0 63-17t21-49q0-28-13-46t-37-27l-38-14q-31-10-41-27t-9-52l63-940q2-37 12-51t36-24l39-14q22-8 34-25t12-44q0-30-20-50t-64-20h-560q-44 0-64 18t-21 48q0 26 11 44t40 29l39 14q30 10 40 26t9 50l-74 993 128 12L981 145q-28-75-56-95t-69-21q-30 0-54 7t-45 33-43 83L302 1195l124 22-77-951q-4-48 21-73t63-47l28-16q17-9 26-23t9-38q0-31-20-50T413 0H116Q73 0 53 18T33 66q0 31 16 47t41 29l21 10q32 15 55 41t27 74l68 854q5 59-6 87t-43 39l-38 14q-26 10-38 27t-13 46q0 66 84 66h386q61 0 97-25t68-104l306-788Z"/><glyph unicode="N" horiz-adv-x="1540" d="M546 66q0-30-20-47T463 0H150q-42 1-63 18T66 66q0 51 57 76l22 10q46 21 65 48t19 86v751q0 37-6 57t-33 54l-77 105q-22 30-30 47t-9 37q0 30 20 46t54 17h341q39 0 64-13t50-50l646-915-59-174v866q0 56-17 84t-67 50l-21 10q-57 28-57 76 0 31 20 48t63 18h313q43 0 63-17t21-49q0-50-57-76l-22-10q-45-20-64-47t-20-87V364q0-39 6-69t25-55l62-87q26-33 31-50t5-37q0-30-20-48t-55-18h-392q-64 0-64 52 0 18-7 35t-41 63l-650 919 140 87V285q0-54 17-82t67-51l21-10q56-26 56-76Z"/><glyph unicode="O" horiz-adv-x="1606" d="M797 1439q175 0 313-53t236-152 148-236 51-307q0-153-50-286t-147-233-232-155-307-56q-174 0-312 53T261 166 112 402 60 709q0 153 51 286t147 233 232 155 307 56Zm273-1023q0 134-21 263t-59 241-84 198-99 134-103 49q-54 0-90-36t-55-106-19-174q0-135 21-264t59-241 84-198 98-134 104-49q55 0 91 36t54 106 19 175Z"/><glyph unicode="P" horiz-adv-x="1530" d="M1476 874q0-132-69-228t-201-150-314-53q-119 0-211 26t-166 72l15 122q38-27 73-44t73-26 85-8q74 0 134 33t97 100 37 168q0 117-41 200t-111 129-161 46h-24V218q0-25 11-42t40-23l60-13q31-7 44-24t14-50q0-30-20-48T777 0H172q-43 0-63 18T88 66q0 53 51 73l39 14q26 10 38 25t13 40v964q0 25-12 40t-39 25l-39 14q-51 20-51 73 0 31 20 48t64 18h558q239 0 405-67t254-186 87-273Z"/><glyph unicode="Q" horiz-adv-x="1607" d="M795 1439q174 0 312-53t236-152 149-236 52-307q0-153-51-286t-147-233-232-155-307-56q-174 0-312 53T259 166 110 402 58 709q0 153 51 286t147 233 232 155 307 56Zm275-1023q0 134-21 263t-59 241-84 198-99 135-103 49q-54 0-90-36t-55-107-19-174q0-134 21-263t59-242 84-198 99-135 103-49q55 0 91 36t54 107 19 175Zm-254-78q-10 38-3 66t42 39q37 11 59-8t33-56q37-121 80-199t94-123 112-63 138-19q57 0 85 12t48 24 45 14q20 0 29-11t10-31q0-15-5-32t-15-40l-51-122q-16-39-50-56t-102-18q-88 0-167 34t-149 109T920 51 816 338Z"/><glyph unicode="R" horiz-adv-x="1658" d="M1513 909q0-92-43-168t-123-129-192-73q-53-10-96-21t-86-21-100-9q-62 0-114 8t-93 25-77 37l1 124q27-19 56-31t64-19 80-7q118 0 184 66t66 207q0 109-40 193t-110 133-159 49h-39V218q0-25 9-40t32-25l29-14q30-15 40-31t11-42q0-66-84-66H172q-43 0-63 18T88 66q0 53 51 73l39 14q26 10 38 25t13 40v964q0 25-12 40t-39 25l-39 14q-51 20-51 73 0 31 20 48t64 18h577q247 0 417-62t259-172 88-257ZM825 542l448 50 223-383q18-30 32-45t38-27q24-12 35-28t12-43q0-30-20-48t-64-18h-498q-80 0-80 66 0 16 6 28t22 23l13 9q18 14 20 27t-10 39L825 542Z"/><glyph unicode="S" horiz-adv-x="1294" d="M683-30q-69 0-119 14t-84 29-57 14q-24 0-43-9T342-4t-38-22-41-10q-31 0-50 18t-27 59l-57 345q-4 28 9 48t43 32q34 12 59 0t43-49q64-120 124-186t119-92 123-26q83 0 133 39t51 110q0 49-24 85t-95 71-212 75q-156 46-250 110T115 761 73 982q0 129 63 229t180 158 275 57q81 0 138-14t98-28 71-15q25 0 45 15t43 32 56 16q32 0 53-20t37-76l90-332q10-36-3-64t-45-39q-33-10-58 2t-42 44q-65 128-138 201t-146 104-143 31q-79 0-123-44t-44-113q0-45 22-82t92-75 208-87q153-53 245-117t134-150 42-202q0-123-65-223T973 30 683-30Z"/><glyph unicode="T" horiz-adv-x="1488" d="M405 1400h678q45 0 77 8t58 15 52 8q47 0 70-23t39-78l64-336q8-39-6-63t-49-31q-31-7-55 4t-40 44q-60 120-103 185t-80 92-84 27h-50V218q0-25 13-40t38-25l38-14q51-20 51-73 0-66-84-66H456q-43 0-63 18t-21 48q0 53 51 73l39 14q26 9 38 24t13 41v1034h-51q-45 0-83-26t-80-93-103-185q-17-33-41-44t-55-4q-33 6-47 30t-8 64l64 336q15 55 38 78t72 23q25 0 50-7t58-16 78-8Z"/><glyph unicode="U" horiz-adv-x="1531" d="m1202 620-37 498q-4 57-24 88t-62 42l-28 8q-39 11-55 28t-16 49q0 30 20 48t58 19h372q38 0 58-18t21-49q0-31-17-47t-55-29l-27-9q-58-18-76-51t-14-89l40-483q5-53 7-104t3-106q0-129-62-232T1118 21 788-39q-202 0-336 55T251 173t-67 241q0 17 1 43t3 71 8 117l35 536q2 29-9 43t-47 23l-40 9q-71 17-71 77 0 30 20 48t59 19h636q38 0 58-18t21-49q0-31-17-49t-54-27l-42-10q-25-6-36-21t-14-44l-34-543q-4-61-5-113t-1-87q0-170 66-244t184-75q94 0 162 36t106 104 37 160q0 71-2 115t-6 85Z"/><glyph unicode="V" horiz-adv-x="1512" d="M1015 1334q0 31 20 48t63 18h317q43 0 63-17t21-49q0-23-12-37t-38-28l-29-14q-37-18-62-52t-48-107l-272-844q-16-50-22-78t-7-57V62q0-30-19-46T943 0H576q-27 0-45 16t-18 49v54q0 17-6 41t-16 52l-322 954q-13 38-26 55t-40 30l-29 14q-42 22-42 69 0 31 20 48t64 18h575q44 0 64-17t20-49q0-25-12-39t-39-27l-33-15q-26-12-33-36t9-73l291-886-125-115 318 969q17 51 5 84t-63 59l-28 14q-24 12-37 25t-13 40Z"/><glyph unicode="W" horiz-adv-x="2235" d="m1061 1089 153-22-261-846q-10-28-14-54t-5-62V64q0-32-18-48T871 0H522q-27 0-45 16t-18 48v41q0 20-3 35t-13 49l-292 986q-10 35-24 51t-40 27l-37 15q-21 9-30 27t-10 40q0 30 20 47t62 18h560q42 0 62-17t20-48q0-46-43-62l-34-11q-24-8-29-34t6-71l270-933-147-102 304 967Zm709 245q0 31 20 48t63 18h296q43 0 63-17t20-49q0-23-11-37t-39-28l-28-14q-38-19-63-52t-44-101l-235-881q-12-43-16-65t-4-51V64q0-32-18-48t-44-16h-358q-26 0-44 16t-18 48v41q0 17-3 32t-14 52l-279 986q-14 48-23 62t-27 22l-35 15q-22 10-32 24t-10 36q0 31 20 48t63 18h540q42 0 62-17t20-49q0-24-11-39t-37-26l-29-10q-24-8-30-29t8-74l258-936-134-98 274 1000q14 50 2 84t-59 56l-24 11q-21 10-30 24t-10 37Z"/><glyph unicode="X" horiz-adv-x="1504" d="M1327 232q20-31 35-48t32-26 41-19q27-12 41-29t15-44q0-30-20-48t-64-18H781q-43 0-63 18t-21 48q0 29 14 46t43 30q22 9 30 25t4 41-25 55l-596 921q-13 21-24 35t-26 23-35 19q-29 15-40 31t-12 42q0 31 20 48t64 18h596q44 0 62-18t18-48q0-27-8-43t-32-25l-27-9q-24-8-26-25t22-56l608-944ZM894 683l-162 43 306 407q34 45 31 75t-37 45l-21 10q-20 10-32 27t-13 44q0 31 19 48t60 18h301q84 0 84-64 0-26-18-44t-53-38q-38-19-69-56t-88-112L894 683Zm-292 51 160-53-332-424q-37-48-32-76t35-43l14-7q23-11 34-25t11-40q0-30-20-48T412 0H110Q68 0 48 18T27 66q0 23 12 39t46 34q43 23 75 49t59 58 57 70l326 418Z"/><glyph unicode="Y" horiz-adv-x="1418" d="m924 432-373-50-392 792q-20 40-34 55t-37 25l-27 12q-21 10-32 28t-11 40q0 31 20 48t64 18h568q43 0 63-17t21-49q0-55-51-72l-27-9q-30-11-35-30t13-63l264-615-149-70 296 639q21 46 11 83t-60 58l-23 11q-17 8-29 25t-12 43q0 31 20 48t64 18h289q43 0 63-17t20-49q0-24-10-39t-31-27l-16-9q-19-10-36-26t-37-48-47-89L924 432Zm-427 86 464 1V218q0-25 12-40t38-25l39-14q51-20 51-73 0-30-20-48t-64-18H441q-43 0-63 18t-21 48q0 53 51 73l39 14q26 9 38 24t12 41v300Z"/><glyph unicode="Z" horiz-adv-x="1320" d="M1226 1245 500 49l-230 91h525q47 0 87 10t78 36 69 73 64 121l29 70q13 35 39 45t57 4q35-6 48-30t5-61l-73-338q-12-52-37-76t-73-25q-25 0-51 7T979-8t-77 8H87Q51 0 33 17T15 65q0 18 8 40t26 51l731 1204 46-100H507q-62 0-106-17t-80-60-72-122l-26-52q-18-33-43-42t-52-6q-33 5-49 27t-10 61l49 281q10 53 35 77t74 24q25 0 51-7t58-16 78-8h774q36 0 55-16t19-47q0-17-9-40t-27-52Z"/><glyph unicode="[" horiz-adv-x="774" d="M475 1273V-50q0-43 22-60t70-18h122q78 0 78-64 0-28-18-45t-60-18H245q-52 0-73 24t-22 75v1535q0 52 21 75t74 24h444q41 0 59-18t19-45q0-65-78-65H567q-48 0-70-16t-22-61Z"/><glyph unicode="\" horiz-adv-x="1014" d="M429 575q24-53 52-122t58-146 60-156T658-4t55-140 48-112q20-43 63-53t98 15q55 25 75 65t0 83q-22 47-54 108T872 94t-80 145-81 147-74 138-59 119q-25 53-53 122t-58 146-59 157-59 155-55 140-48 111q-21 43-64 53t-97-15q-55-25-75-64t0-84q21-46 53-108t72-133 80-145 81-147 74-138 59-118Z"/><glyph unicode="]" horiz-adv-x="794" d="M319-50v1323q0 43-22 60t-70 18H105q-78 0-78 64 0 28 18 45t60 18h444q52 0 73-24t22-75V-156q0-52-21-75t-74-24H105q-41 0-59 18t-19 45q0 65 78 65h122q48 0 70 16t22 61Z"/><glyph unicode="^" horiz-adv-x="947" d="M533 1264H421l277-473q40-51 78-61t70 6q27 15 31 48t-20 73l-224 462q-42 71-76 92t-80 22q-45 0-80-21t-77-93L89 860q-23-41-20-74t31-49q32-16 70-6t78 62l285 471Z"/><glyph unicode="_" horiz-adv-x="1040" d="M2-279q0 40 17 63t54 23h894q37 0 53-23t17-63q0-41-16-64t-54-24H73q-37 0-54 23T2-279Z"/><glyph unicode="`" horiz-adv-x="584" d="m407 1335 72-201q10-19 13-37t-12-34q-14-13-37-14t-44 8l-179 104q-74 38-112 79t-47 103q-8 54 27 104t107 58q78 11 128-37t84-133Z"/><glyph unicode="a" horiz-adv-x="1198" d="M663 136v23h-32v648q0 38-20 61t-56 23q-26 0-45-12t-20-35V735q0-83-57-129t-164-46q-90 0-134 38T91 705q0 66 59 131t180 110 302 44q211 0 314-77t103-212V223q0-20 9-32t30-12q17 0 27 9t20 18q7 7 14 12t17 5q17 0 24-12t7-31q0-44-31-92t-95-82-158-34q-111 0-180 47t-70 117ZM54 213q0 136 123 215t348 80q59 0 102-8t72-23l-34-85q-21 12-39 17t-41 5q-49 0-77-33t-29-95q0-65 28-98t74-34q29 0 54 13t39 32l24-78Q650 50 559 11T364-28q-139 0-224 69T54 213Z"/><glyph unicode="b" horiz-adv-x="1295" d="M541 1422V73L371 17q-83-27-116-35t-62-8q-33 0-53 18t-21 55v1153q0 32-8 45t-26 18l-22 7q-21 7-30 19t-9 33q0 23 12 37t48 27l226 87q53 20 83 28t54 9q47 0 70-25t24-63Zm-73-793-70 67q85 138 191 217t243 79q119 0 212-61t148-168 55-248q0-163-66-285T999 40 737-28q-120 0-209 51T373 178l107 72q45-65 85-92t89-28q47 0 82 34t55 109 20 199q0 113-20 182t-56 101-80 32q-55 0-101-37t-86-121Z"/><glyph unicode="c" horiz-adv-x="1110" d="M1048 684q0-76-57-128t-152-53q-93 0-139 49t-47 127v34q0 64-26 101t-71 38q-35 0-65-26t-50-80-19-136q0-117 39-195t109-118 156-40q65 0 117 16t102 62q28 25 42 34t29 9q19 0 28-19t10-48q0-90-59-167T830 19 584-28q-152 0-273 60T120 201 49 454q0 155 68 276t194 192 295 70q137 0 236-41t152-111 54-156Z"/><glyph unicode="d" horiz-adv-x="1315" d="m769 175-15 1v1024q0 32-8 45t-25 18l-23 7q-20 7-29 19t-10 33q0 23 12 37t49 27l226 87q50 19 80 28t61 9q44 0 67-25t23-63V206q0-39 6-55t21-24l22-10q23-9 32-24t10-34q0-28-17-43t-57-16H935q-66 0-116 48t-50 113v14ZM49 449q0 163 66 285t182 190 262 68q121 0 210-51t154-155l-107-72q-45 65-85 92t-89 28q-47 0-82-34t-55-109-20-199q0-113 20-182t56-100 80-32q56 0 101 37t86 120l69-67Q813 131 707 52T464-28q-119 0-213 61T103 201 49 449Z"/><glyph unicode="e" horiz-adv-x="1116" d="M1067 605q0-68-37-106t-107-38H330v102h267q54 0 54 51 0 128-29 183t-77 55q-35 0-63-26t-44-80-17-137q0-183 82-267t224-85q67 0 121 16t106 63q28 26 42 34t29 9q20 0 29-19t9-48q0-90-60-168T835 19 585-28q-152 0-273 60T119 201 48 455q0 162 65 282t189 188 299 67q155 0 258-50t156-137 52-200Z"/><glyph unicode="f" horiz-adv-x="907" d="M630 207q0-35 10-54t37-22l103-13q30-3 42-19t12-39q0-60-71-60H142q-32 0-51 15T72 57q0 24 12 39t42 24l27 8q31 10 43 28t12 49v507q0 19-10 32t-38 27l-39 17q-37 18-51 34t-14 37q0 23 17 38t53 16h168l-84-32v29q0 20-18 41t-42 49-41 65-18 93q0 137 108 220t306 83q126 0 212-38t131-101 44-138q0-82-47-125t-120-43q-84 0-134 48t-50 131v84q0 41-24 60t-61 19q-43 0-64-25t-22-73q0-51 23-91t56-73 68-64 56-60 23-64v-54l-43 59h232q31 0 49-13t18-38q0-38-36-63t-120-25h-66V207Z"/><glyph unicode="g" horiz-adv-x="1232" d="M775 148q-136 14-195 24t-74 19-15 18q0 10 8 17t25 14l-10 19q-136-3-213-32t-110-76-33-103q0-56 31-94t113-64 235-44q124-15 194-29t100-32 30-50q0-31-19-52t-69-32-139-11q-157 0-217 46t-60 127q0 20 5 38t13 28l-6 30q-188-20-257-71T42-284q0-62 45-108t159-72 314-26q328 0 499 99t171 252q0 88-45 145t-145 91-265 51Zm-22 741 90-6q31 79 54 108t61 29q37 0 57-17t35-40 38-41 66-17q62 0 100 46t38 122q0 83-49 127t-126 44q-99 0-186-66T789 975l-36-86Zm391-260q0 101-59 182T911 939t-282 47q-174 0-299-50T137 797 70 588q0-101 59-182t175-128 281-47q175 0 300 49t192 140 67 209ZM556 871q48 10 83-48t62-192q26-134 16-201t-60-78q-32-6-58 17t-48 80-39 144q-17 89-18 148t14 92 48 38Z"/><glyph unicode="h" horiz-adv-x="1367" d="M571 1422V206q0-39 6-55t21-24l20-11q33-18 33-53 0-63-75-63H131Q92 0 75 15T57 59q0 19 10 34t32 24l23 10q15 7 21 23t6 56v994q0 32-8 45t-26 18l-22 7q-21 7-30 19t-10 33q0 23 13 37t48 27l226 87q50 19 81 28t60 9q44 0 67-25t23-63Zm-36-762-59 63 31 28q140 130 239 185t184 56q129 0 202-88t86-229l46-469q4-39 8-55t18-24l23-10q22-9 32-24t10-34q0-28-17-43t-57-16H831q-75 0-75 63 0 35 33 53l20 11q15 8 23 24t4 55l-38 409q-6 64-30 95t-75 32q-31 0-63-13t-60-37l-35-32Z"/><glyph unicode="i" horiz-adv-x="700" d="M571 904V206q0-39 6-55t21-24l22-10q23-9 33-24t10-34q0-28-18-43T588 0H131Q92 0 75 15T57 59q0 19 10 34t32 24l23 10q15 7 21 23t6 56v477q0 31-8 44t-26 18l-22 7q-21 7-30 19t-10 33q0 23 13 37t48 27l226 87q53 20 83 28t54 9q47 0 70-25t24-63Zm-233 175q-111 0-176 52t-65 142q0 89 65 140t176 52q112 0 176-51t65-141q0-89-64-141t-177-53Z"/><glyph unicode="j" horiz-adv-x="700" d="M571 273q0-59 18-112t42-106 42-104 18-108q0-142-105-225t-287-84q-132 0-219 36t-132 96-44 130q0 92 50 137T89-21q82 0 130-53t49-139v-76q0-38 20-56t55-18q39 0 60 22t21 68q0 49-28 95t-69 92-81 92-69 93-28 98v486q0 31-8 44t-26 18l-22 7q-21 7-30 19t-10 33q0 23 13 37t48 27l226 87q54 20 84 28t55 9q46 0 69-25t23-63V273Zm-233 806q-111 0-176 52t-65 142q0 89 65 140t176 52q112 0 176-51t65-141q0-89-64-141t-177-53Z"/><glyph unicode="k" horiz-adv-x="1319" d="M131 0Q92 0 75 15T57 59q0 19 10 34t32 24l23 10q15 7 21 23t6 56v994q0 32-8 45t-26 18l-22 7q-21 7-30 19t-10 33q0 23 13 37t48 27l226 87q50 19 81 28t60 9q44 0 67-25t23-63V206q0-39 6-55t21-24l20-11q33-18 33-53 0-63-75-63H131Zm319 433 376 304q34 28 31 57t-41 46l-26 11q-19 9-26 21t-8 32q0 27 19 42t51 16h391q34 0 53-15t19-40q0-26-15-43t-66-31q-54-15-102-41t-115-80L501 328l-51 105Zm415 294 362-542q16-23 29-36t31-26q23-16 36-33t13-36q0-25-19-39t-51-15H794q-28 0-45 15t-18 43q0 16 7 27t23 22l19 11q16 8 18 24t-21 51L591 477l274 250Z"/><glyph unicode="l" horiz-adv-x="701" d="M571 1422V206q0-39 6-55t21-24l23-10q22-9 32-24t10-34q0-28-17-43T589 0H132Q93 0 75 15T57 59q0 19 10 34t33 24l22 10q15 7 21 23t6 56v994q0 32-8 45t-26 18l-22 7q-21 7-30 19t-9 33q0 23 12 37t48 27l226 87q53 20 83 28t54 9q47 0 70-25t24-63Z"/><glyph unicode="m" horiz-adv-x="2012" d="M571 904V206q0-39 6-55t21-24l21-11q32-18 32-53 0-63-75-63H131Q92 0 75 15T57 59q0 19 10 34t32 24l23 10q15 7 21 23t6 56v476q0 32-8 45t-26 18l-22 7q-21 7-30 19t-10 33q0 23 13 37t48 27l226 87q50 20 81 28t60 9q44 0 67-25t23-63Zm-36-244-59 63 31 28q140 134 241 187t188 54q133 0 212-87t79-231V206q0-39 6-55t21-24l20-11q32-18 32-53 0-63-75-63H800q-75 0-75 63 0 35 32 53l21 11q15 8 21 24t6 55v409q0 63-27 95t-80 32q-33 0-66-13t-62-37l-35-32Zm656 0-59 63 30 28q138 129 235 185t179 56q129 0 202-88t86-230l46-468q4-39 8-55t19-24l22-10q22-9 32-24t10-34q0-28-17-43t-58-16h-448q-75 0-75 63 0 35 32 53l20 11q15 8 23 24t4 55l-38 409q-6 63-30 95t-76 32q-28 0-57-13t-55-37l-35-32Z"/><glyph unicode="n" horiz-adv-x="1366" d="M571 904V206q0-39 6-55t21-24l20-11q33-18 33-53 0-63-75-63H131Q92 0 75 15T57 59q0 19 10 34t32 24l23 10q15 7 21 23t6 56v477q0 31-8 44t-26 18l-22 7q-21 7-30 19t-10 33q0 23 13 37t48 27l226 87q50 19 81 28t60 9q44 0 67-25t23-63Zm-36-244-59 63 31 28q140 130 239 185t184 56q129 0 202-88t86-229l46-469q4-39 8-55t18-24l23-10q22-9 32-24t10-34q0-28-17-43t-57-16H831q-75 0-75 63 0 35 33 53l20 11q15 8 23 24t4 55l-38 409q-6 64-30 95t-75 32q-31 0-63-13t-60-37l-35-32Z"/><glyph unicode="o" horiz-adv-x="1242" d="M628 992q170 0 296-64t197-180 70-270q0-142-73-256T914 40 612-28q-169 0-295 65T120 218 49 486q0 145 74 259t204 180 301 67Zm73-878q38 9 58 53t18 128-30 215q-26 124-58 202t-70 113-79 25q-38-9-58-53t-18-128 30-215q26-123 58-202t70-113 79-25Z"/><glyph unicode="p" horiz-adv-x="1324" d="M551 904v-90l20-38V-260q0-39 6-55t21-24l22-10q23-9 32-24t10-34q0-28-17-43t-57-16H131q-39 0-56 15t-18 44q0 19 10 34t32 24l23 10q14 7 20 23t6 56v943q0 31-8 44t-25 18l-23 7q-20 7-29 19t-10 33q0 23 13 35t48 28l206 88q48 20 79 28t58 9q47 0 70-25t24-63Zm-54-275-69 67q85 138 191 217t242 79q119 0 213-61t148-168 54-248q0-163-66-285T1028 40 766-28q-120 0-209 51T402 178l107 72q45-65 85-92t89-28q47 0 82 34t55 109 20 199q0 113-20 182t-55 101-81 32q-55 0-100-37t-87-121Z"/><glyph unicode="q" horiz-adv-x="1297" d="M738-466q-39 0-56 15t-18 44q0 19 9 34t33 24l22 10q15 7 21 23t6 56V891l170 56q76 25 112 34t60 9q39 0 60-18t21-54V-260q0-39 6-55t21-24l22-10q23-9 32-24t10-34q0-28-17-43t-57-16H738Zm160 734Q814 131 708 52T465-28q-119 0-213 61T104 201 50 449q0 163 66 285t182 190 262 68q121 0 210-51t154-155l-107-72q-45 65-85 92t-89 28q-47 0-82-34t-55-109-20-199q0-113 20-182t56-100 80-32q56 0 101 37t86 120l69-67Z"/><glyph unicode="r" horiz-adv-x="1065" d="M533 546q0 152 40 251t106 147 145 48q106 0 162-63t56-191q0-130-52-192t-137-62q-85 0-127 43t-42 121v42q-1 25-11 39t-33 14q-20 0-35-18t-25-57-9-107l-38-15Zm11 358 27-212V206q0-34 10-48t45-22l77-15q29-6 43-20t14-41q0-29-19-44T684 0H132Q92 0 75 15T57 59q0 19 10 34t32 24l23 10q15 7 21 23t6 56v473q0 31-8 44t-26 19l-22 6q-21 7-30 20t-10 32q0 24 13 38t48 27l219 84q70 27 100 35t47 8q28 0 42-20t22-68Z"/><glyph unicode="s" horiz-adv-x="1064" d="M533 97q57 0 84 25t28 60q0 21-8 40t-37 34-93 27q-184 31-281 82T94 487 59 645q0 163 113 255t334 92q75 0 120-12t73-24 49-12q25 0 39 12t29 24 42 12q20 0 37-13t27-52l52-180q16-51 10-81t-38-43q-32-11-55-1t-45 43q-46 69-96 113t-104 67-114 23q-66 0-99-25t-34-68q0-26 13-45t56-35 125-31q146-27 230-75t121-119 37-167q0-99-53-174T781 13 568-28q-73 0-115 12T383 9t-53 13q-25 0-44-12t-38-25-42-13q-22 0-36 16t-22 54l-31 174q-9 50-1 75t35 36q30 13 53 0t49-48q69-100 140-141t140-41Z"/><glyph unicode="t" horiz-adv-x="879" d="m96 835-34 13q-21 9-32 22t-11 34q0 28 19 43t50 15h55q19 0 35 10t42 35l166 166q32 33 60 48t54 16q28 0 44-18t17-55V362q0-73 25-111t72-39q38 0 58 19t33 43 26 43 38 20q20 1 31-13t12-47q0-85-48-154T674 13 479-28q-163 0-251 78t-89 237v484q0 28-10 41t-33 23Zm320-12v139h364q30 0 48-13t19-38q0-37-36-62t-120-26H416Z"/><glyph unicode="u" horiz-adv-x="1344" d="M788 200v17h-15v465q0 32-8 45t-25 18l-23 7q-21 7-30 19t-9 33q0 23 12 37t48 27l227 87q50 19 80 28t61 9q44 0 66-25t23-63V206q0-39 6-55t21-24l23-10q22-9 32-24t10-34q0-28-17-43t-57-16H964q-70 0-123 59t-53 141Zm-659 90v392q0 32-8 45t-26 18l-22 7q-21 7-30 19t-9 33q0 23 12 37t48 27l226 87q53 20 83 28t54 9q47 0 70-25t24-63V349q0-63 29-95t83-32q33 0 68 13t64 38l35 31 59-63-30-28Q719 79 615 26T425-28q-132 0-214 88t-82 230Z"/><glyph unicode="v" horiz-adv-x="1162" d="M663 0H501q-41 0-71 21t-49 66L101 771q-14 35-23 47t-20 18l-22 10q-19 10-28 23t-9 35q0 27 19 42t52 16h539q70 0 70-58 0-22-11-35t-37-21l-28-8q-40-12-49-38t16-91l196-514-95-59 205 572q24 65 15 92t-48 38l-28 8q-24 8-36 21t-12 35q0 27 19 42t52 16h258q33 0 52-15t20-43q0-19-9-33t-35-23l-19-7q-18-7-34-37t-44-99L786 78q-19-47-52-62T663 0Z"/><glyph unicode="w" horiz-adv-x="1772" d="M626 0H474q-42 0-72 19t-49 68L101 771q-13 36-22 48t-21 17l-22 10q-19 10-28 23t-9 35q0 27 19 42t52 16h507q32 0 51-15t19-43q0-22-11-35t-37-21l-27-8q-22-7-26-30t18-89l171-503-102-82 233 626 118-75L748 78q-19-47-51-62T626 0Zm680 0h-146q-41 0-73 20t-48 67L800 771q-13 36-23 48t-21 17l-21 10q-19 10-28 23t-9 35q0 58 71 58h495q71 0 71-58 0-22-11-36t-30-18l-45-8q-22-4-24-30t17-90l162-504-92-82 174 557q25 79 23 109t-30 38l-27 8q-24 8-36 21t-12 35q0 27 19 42t51 16h232q33 0 52-15t19-43q0-19-8-33t-35-23l-19-7q-18-7-33-37t-40-99L1428 78q-16-46-50-62t-72-16Z"/><glyph unicode="x" horiz-adv-x="1196" d="m434 531 108-52-168-225q-34-46-29-80t38-49l19-10q20-9 29-22t10-32q0-28-19-44T369 1H93Q60 1 41 17T21 61q0 19 11 33t38 30q35 16 62 38t58 58 74 89l170 222Zm209 240 158-225 17-20 236-316q31-40 49-60t37-31q20-12 30-26t10-33q0-28-19-44t-54-16H580q-35 0-54 16t-20 45q0 19 8 31t25 20l22 8q21 8 21 24t-21 47L403 418l-17 21-222 323q-23 33-45 49t-45 27q-26 10-35 25t-10 39q0 28 20 44t54 16h512q34 0 53-15t20-44q0-19-7-31t-21-23l-20-13q-16-11-16-25t19-40Zm113-339-108 53 167 223q35 47 30 81t-39 50l-19 9q-19 10-29 23t-10 32q0 28 19 43t53 16h276q35 0 53-15t19-44q0-20-11-34t-38-30q-51-23-90-64T925 654L756 432Z"/><glyph unicode="y" horiz-adv-x="1208" d="M803 199 573-178 116 765q-18 37-35 52t-44 29q-20 10-29 23t-9 35q0 27 19 42t52 16h539q32 0 51-15t19-43q0-22-11-35t-37-21l-27-8q-40-12-47-39t21-91l225-511ZM579-86l28 65 53 100 244 611q26 64 19 97t-48 46l-33 11q-25 8-37 23t-12 37q0 27 19 42t51 16h280q33 0 52-15t19-43q0-18-10-32t-34-27q-37-19-63-48t-52-93L749-39q-70-171-127-264T499-431t-166-36q-144 0-229 77T19-195q0 83 42 131t115 49q70 0 107-40t66-106l21-48q14-33 32-52t39-20q19 0 35 12t41 54 62 129Z"/><glyph unicode="z" horiz-adv-x="1056" d="M976 794 471 43l-50 77h135q72 0 121 16t90 60 90 125l35 57q16 28 39 36t49 4q28-6 39-25t6-52L966 30q-6-30-23-44t-44-14q-29 0-59 14T748 0H150Q93 0 69 15T45 63q0 20 9 45t35 61l504 749 70-76H490q-59 0-100-12t-75-45-72-98l-47-79q-14-23-35-32t-49-1q-25 8-37 29t-6 54l53 274q6 30 22 45t45 15q29 0 59-15t90-15h577q57 0 81-15t24-47q0-21-10-46t-34-60Z"/><glyph unicode="{" horiz-adv-x="856" d="M433 612q0-33 38-33 114 0 180-41t67-116q0-48-25-95t-58-94-59-93-25-92q0-84 41-130t119-46h42q78 0 78-64 0-26-20-44t-73-19H638q-147 0-242 36t-142 99-47 141q0 86 34 151t80 116 80 95 35 85q0 38-22 58t-65 21q-36 0-54-16t-39-31-60-16q-48 0-77 38t-30 90q0 52 29 90t78 38q40 0 60-15t38-32 55-16q42 0 64 21t23 58q0 41-34 84t-80 95-80 117-35 151q0 79 46 141t142 98 243 37h100q52 0 72-18t21-45q0-64-78-64h-42q-77 0-118-46t-42-130q0-46 25-92t58-92 59-94 25-96q0-73-66-115t-181-42q-38 0-38-33Z"/><glyph unicode="|" horiz-adv-x="651" d="M253 613q0 75-8 180t-18 218-19 217-8 175q0 62 31 96t94 35q63 0 94-34t31-97q0-57-5-135t-13-167-16-178-13-170-5-140q0-75 7-180t19-218T442-2t8-175q0-62-31-96t-94-35q-62 0-93 34t-32 97q0 57 5 135t13 167 16 178 13 170 6 140Z"/><glyph unicode="}" horiz-adv-x="856" d="M423 612q0 33-38 33-114 0-180 41t-67 116q0 48 25 95t58 94 59 93 25 92q0 84-41 130t-119 46h-42q-78 0-78 64 0 26 20 44t73 19h100q147 0 242-36t142-99 47-141q0-86-34-151t-80-116-80-95-35-85q0-38 22-58t65-21q36 0 54 16t39 31 60 16q48 0 77-38t30-90q0-52-29-90t-78-38q-40 0-60 15t-38 32-55 16q-42 0-64-21t-23-58q0-41 34-84t80-95 80-117 35-151q0-79-46-141t-142-98-243-37H118q-52 0-72 18t-21 45q0 64 78 64h42q77 0 118 46t42 130q0 46-25 92t-58 92-59 94-25 96q0 73 66 115t181 42q38 0 38 33Z"/><glyph unicode="~" horiz-adv-x="1280" d="M886 503q-64 0-127 29t-123 67-118 67-112 29q-62 0-104-36t-57-106q-10-27-31-41t-47-15q-76 0-76 87 0 77 41 143t109 107 154 41q83 0 152-29t127-66 108-67 93-29q61 0 104 32t53 97q12 34 34 50t48 17q76 0 76-88 0-81-41-146t-110-104-153-39Z"/><glyph horiz-adv-x="407"/><glyph unicode="¡" horiz-adv-x="649" d="M331-357q-131 0-192 58T77-141q0 29 5 64T99 1l147 541q13 48 32 71t53 23q34 0 52-23t33-71L563 0q12-42 17-77t6-64q0-99-62-157t-193-59Zm1 1535q66 0 120-33t85-90 31-120q0-67-31-121t-85-87-120-33q-67 0-121 32t-85 87-32 122q0 64 31 120t86 89 121 34Z"/><glyph unicode="¢" horiz-adv-x="1097" d="M614 508q0-100 2-181t4-149 4-122 4-97 2-80q0-26-14-40t-38-14q-20 0-34 13t-15 44q0 34 1 77t4 96 5 121 3 150 2 182q0 90-2 163t-4 134-4 109-3 88-2 69q0 26 14 40t40 14q19 0 33-13t14-43q0-31-1-69t-4-87-5-108-4-133-2-164Zm430 178q0-78-46-128t-127-51q-83 0-127 54t-44 148v58q0 51-32 79t-86 28q-45 0-84-31t-63-94-24-157q0-117 37-196t102-119 144-40q79 0 131 29t100 83q23 15 34 21t23 6q16-1 26-12t10-37q-4-92-62-166T798 44 566 1Q418 1 301 56T116 212 48 455q0 150 68 266t192 184 290 67q141 0 240-38t153-103 53-145Z"/><glyph unicode="£" horiz-adv-x="1335" d="m510 378-101 6q32 25 46 50t15 53q0 44-32 88t-79 92-95 99-80 113-32 133q0 124 66 218t203 148 345 54q170 0 280-52t164-137 54-189q0-106-54-164t-152-59q-100 0-162 63t-63 178v135q0 70-24 104t-71 34q-62 0-91-60t-29-199q0-56 3-112t8-113 7-110 2-106q-1-83-27-154T510 378ZM61 167q0 77 37 139t109 100 177 38q79 0 149-10t134-25 128-24 128-11q92 0 144 27t82 86q11 16 30 28t40 12q20-1 34-15t15-43q-3-176-50-286T1089 20 897-33q-67 0-124 22T670 66t-86 154q-16 38-28 53t-37 16q-16 0-28-18t-15-64q-2-84-28-137T374-8 255-33q-97 0-145 56T61 167Zm69 482q0 19 14 30t34 13l227 15 91-95H179q-21 0-35 10t-14 27Zm443-37-3 80h347q19 0 30-11t12-29q0-40-42-40H573Z"/><glyph unicode="¤" horiz-adv-x="1200" d="M141 328q-28-25-33-59t24-61q28-25 64-20t64 29l179 182-121 110-177-181Zm-9 801q-29-27-24-60t33-60l177-181 121 110-179 182q-27 25-63 29t-65-20Zm937 2q-28 26-65 22t-66-30L760 942l121-109 179 181q27 26 32 59t-23 58Zm0-924q29 25 24 57t-33 59L881 504 760 395l178-181q28-25 65-29t66 22ZM599 307q107 0 194 45t140 127 52 192q0 110-52 191T794 987t-194 45q-105 0-192-44T269 862t-52-191q0-110 52-192t138-127 192-45Zm2 122q-68 0-118 32t-77 88-27 122q0 67 27 121t77 87 118 33q69 0 119-32t78-87 28-122q0-67-27-122t-78-87-120-33Z"/><glyph unicode="¥" horiz-adv-x="1415" d="m904 432-353-50-377 792q-19 34-31 51t-39 29l-27 12q-22 10-32 28t-11 40q0 31 20 48t64 18h538q43 0 63-17t21-49q0-51-51-73l-26-8q-43-17-43-36t21-57l259-615-134-70 285 639q20 47 10 84t-58 57l-23 11q-18 8-30 25t-12 43q0 31 20 48t63 18h282q43 0 63-17t21-49q0-24-10-38t-31-28l-15-9q-19-11-36-27t-38-47-47-89L904 432Zm-407 86 439 5V218q0-21 12-38t39-27l39-14q51-25 51-73 0-30-20-48T993 0H441q-43 0-63 18t-21 48q0 48 51 73l40 14q29 12 39 29t10 36v300Zm-328-42q0 19 12 31t31 12h1005q21 0 33-12t12-31q0-43-45-43H210q-41 0-41 43Zm776 201 31 87h241q21 0 33-12t12-31q0-44-45-44H945Zm-776 44q0 19 12 31t31 12h465l38-87H210q-41 0-41 44Z"/><glyph unicode="¦" horiz-adv-x="684" d="M398 803q0-53-18-76t-55-24q-33 0-52 24t-20 76q0 59-8 138t-18 165-19 164-8 133q0 62 31 96t94 35q63 0 94-34t31-97q0-54-7-132t-19-164-18-165-8-139ZM253 421q0 53 17 76t55 24q33 0 53-24t20-76q0-59 7-138t19-165 18-164 8-133q0-62-31-96t-94-35q-62 0-93 34t-32 97q0 54 8 132t18 164 19 165 8 139Z"/><glyph unicode="§" horiz-adv-x="1235" d="m673 191-8 83q85 3 131 40t46 96q0 45-22 79t-75 64-145 60q-173 49-272 113T189 872t-41 177q0 109 54 194t154 133 235 49q67 0 113-11t78-23 57-12q21 0 41 13t41 26 45 13q28 0 46-18t35-64l79-291q11-31-3-52t-44-29q-51-10-80 41-57 107-119 169t-124 90-122 27q-64 0-101-37t-38-96q0-45 21-80t63-61 107-48q166-49 258-112t130-140 38-166q0-101-52-184T909 246t-236-55ZM543 785l11-85q-70 2-116-36t-46-99q0-49 30-84t89-62 149-58q164-47 256-111t130-143 38-169q0-107-56-191T870-387t-244-49q-58 0-100 9t-70 18-47 9q-27 0-52-10t-48-21-43-11q-30 0-46 14t-24 48L136-90q-13 50 41 64 25 8 48-1t43-37q58-100 111-154t108-77 111-22q68 0 109 36t42 96q0 42-16 74t-54 57T574-8Q398 43 300 106T161 249t-40 174q0 101 51 181t145 129 226 52Z"/><glyph unicode="¨" horiz-adv-x="953" d="M250 1045q-89 0-141 47t-52 130q0 84 52 131t141 48q90 0 141-47t52-132q0-81-51-129t-142-48Zm467 0q-89 0-142 47t-53 130q0 83 53 131t142 48q91 0 143-47t52-132q0-81-52-129t-143-48Z"/><glyph unicode="©" horiz-adv-x="1878" d="M940-151q194 0 356 63t280 178 184 271 65 343q0 187-65 343t-183 271-281 178-356 63q-194 0-356-63t-281-178-183-271-66-343q0-186 65-342T303 90 583-88t357-63Zm0 114q-221 0-388 95T290 321t-95 383q0 216 94 383t262 262 389 96q165 0 301-54t236-154 153-235 54-298q0-162-53-297t-153-235-236-154-302-55Zm473 548q-2-60-33-118t-89-105-141-76-185-29q-160 0-279 65T501 431t-66 272q0 147 70 262t189 182 265 66q59 0 95-11t60-22 48-11q27 0 45 9t35 17 33 9q25 0 38-12t20-46l50-250q6-27-8-45t-41-24q-30-6-51 5t-33 44q-39 124-95 167t-113 44q-55 0-90-39t-51-113-16-176q0-121 28-200t79-119 122-39q68 0 119 30t79 81q12 22 25 32t24 12 22 0q30-7 30-45Z"/><glyph unicode="ª" horiz-adv-x="1087" d="M117 1197q0 54 52 108t157 90 264 37q169 0 251-66t83-185V784q0-16 7-27t25-11q13 0 20 8t13 16 15 8q18 0 27-11t9-28q0-34-26-73t-78-66-131-27q-93 0-151 39t-59 99l-26 20v546q0 32-17 51t-46 19q-25 0-42-13t-18-38v-68q0-67-48-109t-137-42q-70 0-107 31t-37 89Zm478-263q-18 11-35 15t-38 5q-38 0-61-29t-24-85q0-56 25-84t65-28q24 0 45 11t31 26l20-66q-40-61-118-93t-166-33q-116 0-187 58T80 777q0 116 106 183t300 67q47 0 82-6t57-20l-30-67Z"/><glyph unicode="«" horiz-adv-x="1337" d="M81 493q0 30 19 63t56 63q57 45 115 91t113 89 102 78 81 61q25 19 43 21t31-9q14-11 12-30t-15-44q-26-50-61-111t-80-142-107-187v115q61-105 106-185t81-142 61-114q13-24 15-43t-12-30q-13-11-31-9t-43 21q-34 24-81 60t-102 78-113 89-115 92q-36 29-55 62t-20 63Zm598 0q0 30 19 63t56 63q57 45 115 91t113 89 102 78 81 61q25 19 43 21t31-9q14-11 12-30t-15-44q-26-50-61-111t-80-142-107-187v115q61-105 106-185t81-142 61-114q13-24 15-43t-12-30q-13-11-31-9t-43 21q-34 24-81 60t-102 78-113 89-115 92q-36 29-55 62t-20 63Z"/><glyph unicode="¬" horiz-adv-x="1137" d="M106 778q0 39 25 61t59 23h724q46 0 74-24t29-71V436q0-31-24-53t-67-23q-43 0-67 23t-25 54v281l22-21H189q-33 0-58 21t-25 60Z"/><glyph unicode="­" horiz-adv-x="796" d="M678 685q96 0 59-102l-31-88q-16-47-39-64t-60-18H118q-96 0-59 102l31 88q17 48 39 65t61 17h488Z"/><glyph unicode="®" horiz-adv-x="1441" d="M718 247q152 0 280 48t221 137 145 207 52 260q0 138-52 253t-146 201-221 132-279 47q-150 0-277-47t-220-132-144-200-52-254q0-141 51-259t143-207 220-137 279-49Zm0 97q-166 0-293 72T226 615t-72 284q0 157 72 277t200 190 292 69q164 0 292-69t203-191 74-276q0-158-72-284t-201-198-296-73Zm369 653q0-63-46-111t-124-63q-42-6-72-18t-78-12q-54 0-90 13t-61 28l-3 75q30-21 51-27t60-7q51 0 77 28t27 90q0 72-31 118t-81 47h-41V674q0-17 3-24t13-13l13-7q12-9 15-16t3-19q0-35-45-35H403q-47 0-47 35 0 24 25 37l17 8q11 5 16 11t5 23v453q0 14-5 21t-14 12l-19 8q-25 11-25 37 0 35 47 35h315q179 0 274-67t95-176ZM737 823l241 26 91-183q8-14 14-21t16-12q14-7 19-14t5-19q0-18-13-29t-34-11H834q-44 0-44 35 0 14 10 25l5 4q7 3 8 12t-5 24l-71 163Z"/><glyph unicode="¯" horiz-adv-x="868" d="M57 1204q0 52 22 75t62 23h533q40 0 62-22t22-75q0-51-22-74t-62-24H141q-40 0-62 24t-22 73Z"/><glyph unicode="°" horiz-adv-x="792" d="M396 1433q91 0 160-39t110-107 40-160q0-86-40-152T555 872t-159-37q-89 0-159 38T127 979t-41 154q0 84 39 152t109 108 162 40Zm0-121q-74 0-118-51t-45-128q0-79 46-128t117-49q69 0 116 48t48 126q0 81-46 131t-118 51Z"/><glyph unicode="±" horiz-adv-x="1143" d="M113 838q0 36 21 57t50 21h791q28 0 48-21t21-57q0-36-20-56t-49-20H183q-27 0-48 20t-22 56Zm460-450q-36 0-57 21t-21 50v791q0 28 21 48t57 21q36 0 56-20t20-49V458q0-27-20-48t-56-22ZM112 162q0 36 21 57t50 21h791q28 0 48-21t21-57q0-36-20-56t-49-20H182q-27 0-48 20t-22 56Z"/><glyph unicode="²" horiz-adv-x="798" d="m177 856-55 30 112 50q70 31 112 68t62 88 19 117q0 94-12 130t-41 36q-31 0-42-22t-11-62v-69q0-54-37-87t-99-33q-61 0-96 31t-36 89q0 81 83 146t262 66q168 0 248-62t80-160q0-53-29-98t-93-84-169-78l-258-96ZM41 769q0 74 66 110t205 37q50 0 97-7t90-16 79-8q29 0 50 13t33 49q6 16 19 22t27 6q53-2 46-60-10-140-65-200t-145-61q-76 0-121 29t-78 98q-15 24-21 35t-15 12q-10 0-15-14t-6-43q-2-60-32-88t-93-29q-56 0-88 31t-33 84Z"/><glyph unicode="³" horiz-adv-x="736" d="m367 1044-25 17q20 6 43 9t54 4q117 0 193-53t76-148q0-106-94-168t-258-62q-156 0-234 51T44 823q0 52 40 87t100 35q60 0 93-31t33-82v-62q0-26 13-46t37-20q30 0 44 32t15 109q0 77-21 110t-52 34h-44q-22 0-38 10t-16 32q0 16 8 28t25 25l237 181 10-71H253q-50 0-60-35l-10-38q-4-17-17-27t-38-10q-24 0-39 11t-13 35l21 217q2 24 22 38t53 15h482q29 0 45-13t17-34q0-16-13-30t-44-33l-292-246Z"/><glyph unicode="´" horiz-adv-x="560" d="M143 1335q34 85 83 133t129 37q70-8 105-58t28-104q-7-61-45-102t-113-80l-178-104q-22-9-45-8t-36 14q-16 15-13 33t13 38l72 201Z"/><glyph unicode="µ" horiz-adv-x="1348" d="M128 304h61q0-124 24-215t57-162 56-126 25-108q0-74-51-121t-124-47q-77 0-128 49T-3-293q0 46 19 104T62-58t46 163 20 199Zm668 2 59-63-45-42Q678 80 577 27T393-26q-118 0-192 78t-74 219v527q0 43 23 71t61 42l149 52q41 13 66 19t53 7q29 0 46-18t17-46V350q0-63 25-94t72-32q30 0 60 10t61 38l36 34Zm251-332q-121 0-191 54t-75 160l-14 23v586q0 43 23 71t62 43l149 52q40 13 65 19t54 7q29 0 46-18t17-46V225q0-20 9-32t29-13q15 0 24 9t16 17 17 9q19 0 30-12t12-31q0-41-30-87t-92-78-151-33Z"/><glyph unicode="¶" horiz-adv-x="1493" d="M1019 248v903q0 38-19 61t-65 24q-43 0-62-26t-20-59V248q0-32 19-57t64-26q45 0 64 23t19 60ZM1341 0H480q-27 0-45 15t-19 43q0 33 17 53t43 29l61 18q35 10 51 26t16 40v326q-30-5-58-10t-59-5q-214 0-337 111T26 944q0 138 62 240t174 159 263 57h823q29 0 53-16t24-48q0-27-12-43t-33-27l-52-23q-30-12-45-31t-16-48V236q0-28 12-48t41-30l53-18q25-9 39-25t14-45q0-36-28-53t-57-17Z"/><glyph unicode="·" horiz-adv-x="655" d="M326 273q-66 0-119 33t-85 90-32 120q0 67 31 121t85 87 120 33q68 0 121-32t85-87 32-122q0-64-31-120t-85-89-122-34Z"/><glyph unicode="¸" horiz-adv-x="647" d="M266 14h98l-79-153-68 15q23 6 50 9t71 3q107 0 162-43t56-119q0-83-67-132t-195-50q-105 0-167 33t-69 75q-1 22 12 35t32 15q16 2 29-4t28-15q23-19 44-28t47-10q68 0 68 85 0 36-20 55t-61 20h-25q-26 0-33 15t4 37l83 157Z"/><glyph unicode="¹" horiz-adv-x="652" d="M120 1285h25q22 0 31-10t9-39V827q0-22-8-33t-26-16l-53-14q-44-9-44-42 0-41 58-41h441q57 0 57 41 0 31-43 42l-48 14q-14 5-22 16t-8 33v565q0 47-55 47-12 0-25-3t-31-10q-38-22-84-35t-125-13h-44q-28 0-44-13t-17-34q0-21 14-33t42-13Z"/><glyph unicode="º" horiz-adv-x="1075" d="M545 1430q142 0 248-55t165-153 60-227q0-122-62-218T785 625t-255-56q-141 0-247 54T117 776t-60 227q0 120 62 217t171 153 255 57Zm60-740q28 6 42 45t14 112-23 176q-22 106-49 171t-57 95-59 22q-26-6-41-45t-15-110 23-179q23-104 50-170t56-95 59-22Z"/><glyph unicode="»" horiz-adv-x="1337" d="M1257 495q0-30-19-63t-56-63q-57-45-115-91t-113-89-102-78-81-61q-25-19-43-21t-31 9q-14 11-12 30t15 44q26 50 61 111t80 142 107 187V437q-61 105-106 185t-81 142-61 114q-13 24-15 43t12 30q13 11 31 9t43-21q34-24 81-60t102-78 113-89 115-92q36-29 55-62t20-63Zm-598 0q0-30-19-63t-56-63q-57-45-115-91t-113-89-102-78-81-61q-25-19-43-21t-31 9Q85 49 87 68t15 44q26 50 61 111t80 142 107 187V437q-61 105-106 185t-81 142-61 114q-13 24-15 43t12 30q13 11 31 9t43-21q34-24 81-60t102-78 113-89 115-92q36-29 55-62t20-63Z"/><glyph unicode="¼" horiz-adv-x="1641" d="M159 1285h25q22 0 31-10t9-39V827q0-22-8-33t-26-16l-53-14q-44-9-44-42 0-41 58-41h441q57 0 57 41 0 31-43 42l-48 14q-14 5-22 16t-8 33v565q0 47-55 47-12 0-25-3t-31-10q-38-22-84-35t-125-13h-44q-28 0-44-13t-17-34q0-21 14-33t42-13Zm979-997q0 17 5 28t18 21l181 155q19 14 31 19t23 5q34 0 34-34l2-336q0-22 8-32t22-17l38-13q20-6 31-16t12-26q0-41-57-41h-414q-58 0-58 41 0 32 44 42l46 13q16 5 25 16t9 33v142ZM985 409q35 26 50 49t16 46q0 26-15 48t-32 46-16 59q0 55 45 92t135 38q75 0 120-33t46-90q0-37-23-80t-110-112L891 224l-19 34h629q26 0 40-9t15-28q0-42-55-42H848q-27 0-42 12t-15 34q0 11 8 26t32 30l154 128ZM884 771q-20-25-35-31t-41 6q-19 11-21 27t9 45q14 30 36 76t48 102 53 112 53 108 46 90 32 58q30 46 71 58t91-14q48-26 55-65t-21-86q-12-19-38-54t-60-81-74-96-77-99-71-89-56-67ZM672 627q22 25 38 31t41-4q20-12 21-29t-12-45q-13-30-34-76t-48-102-53-113-53-109-46-90-32-58q-30-45-71-57t-91 14q-47 25-55 64t22 86q12 19 37 54t61 82 74 97 77 99 70 90 54 66Z"/><glyph unicode="½" horiz-adv-x="1689" d="M164 1285h25q22 0 31-10t9-39V827q0-22-8-33t-26-16l-53-14q-44-9-44-42 0-41 58-41h441q57 0 57 41 0 31-43 42l-48 14q-14 5-22 16t-8 33v565q0 47-55 47-12 0-25-3t-31-10q-38-22-84-35t-125-13h-44q-28 0-44-13t-17-34q0-21 14-33t42-13Zm720-514q-20-25-35-31t-41 6q-19 11-21 27t9 45q14 30 36 76t48 102 53 112 53 108 46 90 32 58q30 46 71 58t91-14q48-26 55-65t-21-86q-12-19-38-54t-60-81-74-96-77-99-71-89-56-67ZM672 627q22 25 38 31t41-4q20-12 21-29t-12-45q-13-30-34-76t-48-102-53-113-53-109-46-90-32-58q-30-45-71-57t-91 14q-47 25-55 64t22 86q12 19 37 54t61 82 74 97 77 99 70 90 54 66Zm355-446-55 30 112 50q70 31 112 68t62 88 19 117q0 94-12 130t-41 36q-31 0-42-22t-11-62v-69q0-54-37-87t-99-33q-61 0-96 31t-36 89q0 81 83 146t262 66q168 0 248-62t80-160q0-53-29-98t-93-84-169-78l-258-96ZM891 94q0 74 66 110t205 37q50 0 97-7t90-16 79-8q29 0 50 13t33 49q6 16 19 22t27 6q53-2 46-60-10-140-65-200t-145-61q-76 0-121 29t-78 98q-15 24-21 35t-15 12q-10 0-15-14t-6-43q-2-60-32-88t-93-29q-56 0-88 31t-33 84Z"/><glyph unicode="¾" horiz-adv-x="1720" d="M1217 287q0 17 5 28t18 21l181 155q19 14 31 19t23 5q34 0 34-34l2-336q0-22 8-32t22-17l38-13q20-6 31-16t12-26q0-41-57-41h-414q-58 0-58 41 0 32 44 42l46 13q16 5 25 16t9 33v142Zm-153 121q35 26 50 49t16 46q0 26-15 48t-32 46-16 59q0 55 45 92t135 38q75 0 120-33t46-90q0-37-23-80t-110-112L970 223l-19 34h629q26 0 40-9t15-28q0-42-55-42H927q-27 0-42 12t-15 34q0 11 8 26t32 30l154 128Zm-95 363q-20-25-35-31t-41 6q-19 11-21 27t9 45q14 30 36 76t48 102 53 112 53 108 46 90 32 58q30 46 71 58t91-14q48-26 55-65t-21-86q-12-19-38-54t-60-81-74-96-77-99-71-89-56-67ZM757 627q22 25 38 31t41-4q20-12 21-29t-12-45q-13-30-34-76t-48-102-53-113-53-109-46-90-32-58q-30-45-71-57t-91 14q-47 25-55 64t22 86q12 19 37 54t61 82 74 97 77 99 70 90 54 66Zm-332 417-25 17q20 6 43 9t54 4q117 0 193-53t76-148q0-106-94-168t-258-62q-156 0-234 51t-78 129q0 52 40 87t100 35q60 0 93-31t33-82v-62q0-26 13-46t37-20q30 0 44 32t15 109q0 77-21 110t-52 34h-44q-22 0-38 10t-16 32q0 16 8 28t25 25l237 181 10-71H311q-50 0-60-35l-10-38q-4-17-17-27t-38-10q-24 0-39 11t-13 35l21 217q2 24 22 38t53 15h482q29 0 45-13t17-34q0-16-13-30t-44-33l-292-246Z"/><glyph unicode="¿" horiz-adv-x="1154" d="m778 480-23 85q-10 37-31 53t-58 17q-33 0-51-15t-34-59l-22-67q-10-33-25-48t-49-21l-73-13q-191-35-276-123T50 55q0-186 136-284t427-98q160 0 284 51t195 135 71 188q0 100-57 155t-150 55q-110 0-168-65T729 8v-94q0-59-28-89t-74-31q-56 0-81 52T521-5q0 137 20 211t82 102l71 29q59 25 78 59t6 84Zm-103 698q66 0 120-33t85-90 31-120q0-67-31-121t-85-87-120-33q-68 0-121 32t-85 87-32 122q0 64 31 120t85 89 122 34Z"/><glyph unicode="À" horiz-adv-x="1570" d="M355 594h581l1-145H353l2 145ZM514 66q0-30-20-48T431 0H110Q68 0 48 18T27 66q0 22 10 37t34 30l21 13q33 20 52 50t41 103l257 831q18 59 13 86t-41 44q-28 14-39 31t-12 43q0 31 21 48t64 18h640q43 0 63-17t21-49q0-27-12-44t-36-28q-25-12-29-32t9-64l278-881q21-66 38-97t44-44q35-18 46-34t12-44q0-30-20-48t-64-18H909q-44 0-64 18t-20 48q0 25 12 40t39 27l32 15q26 12 23 32t-18 66l-296 979 42 31-288-932q-16-51-16-82t19-53 63-44l27-14q23-12 36-26t14-39Zm331 1676 98-179q12-19 16-36t-8-34q-13-13-35-15t-42 5l-185 68q-75 27-119 63t-55 100q-12 51 19 102t97 62q70 14 121-24t93-112Z"/><glyph unicode="Á" horiz-adv-x="1570" d="M355 594h581l1-145H353l2 145ZM514 66q0-30-20-48T431 0H110Q68 0 48 18T27 66q0 22 10 37t34 30l21 13q33 20 52 50t41 103l257 831q18 59 13 86t-41 44q-28 14-39 31t-12 43q0 31 21 48t64 18h640q43 0 63-17t21-49q0-27-12-44t-36-28q-25-12-29-32t9-64l278-881q21-66 38-97t44-44q35-18 46-34t12-44q0-30-20-48t-64-18H909q-44 0-64 18t-20 48q0 25 12 40t39 27l32 15q26 12 23 32t-18 66l-296 979 42 31-288-932q-16-51-16-82t19-53 63-44l27-14q23-12 36-26t14-39Zm314 1676q40 73 92 111t122 25q64-11 95-62t21-102q-11-63-54-99t-121-64l-184-68q-21-7-43-5t-34 15q-13 16-9 33t16 37l99 179Z"/><glyph unicode="Â" horiz-adv-x="1570" d="M355 594h581l1-145H353l2 145ZM514 66q0-30-20-48T431 0H110Q68 0 48 18T27 66q0 22 10 37t34 30l21 13q33 20 52 50t41 103l257 831q18 59 13 86t-41 44q-28 14-39 31t-12 43q0 31 21 48t64 18h640q43 0 63-17t21-49q0-27-12-44t-36-28q-25-12-29-32t9-64l278-881q21-66 38-97t44-44q35-18 46-34t12-44q0-30-20-48t-64-18H909q-44 0-64 18t-20 48q0 25 12 40t39 27l32 15q26 12 23 32t-18 66l-296 979 42 31-288-932q-16-51-16-82t19-53 63-44l27-14q23-12 36-26t14-39Zm357 1597H679l323-169q63-34 99-4 14 11 16 33t-23 47l-195 217q-31 32-57 51t-67 19q-40 0-66-19t-58-51l-194-217q-24-25-22-47t15-33q37-30 98 4l323 169Z"/><glyph unicode="Ã" horiz-adv-x="1570" d="M355 594h581l1-145H353l2 145ZM514 66q0-30-20-48T431 0H110Q68 0 48 18T27 66q0 22 10 37t34 30l21 13q33 20 52 50t41 103l257 831q18 59 13 86t-41 44q-28 14-39 31t-12 43q0 31 21 48t64 18h640q43 0 63-17t21-49q0-27-12-44t-36-28q-25-12-29-32t9-64l278-881q21-66 38-97t44-44q35-18 46-34t12-44q0-30-20-48t-64-18H909q-44 0-64 18t-20 48q0 25 12 40t39 27l32 15q26 12 23 32t-18 66l-296 979 42 31-288-932q-16-51-16-82t19-53 63-44l27-14q23-12 36-26t14-39Zm410 1420q-46 0-84 15t-71 37-62 36-56 16q-55 0-74-79-14-35-52-35-53 0-53 70 0 129 49 196t135 68q46 0 84-15t70-36 62-36 56-16q58 0 74 78 14 36 54 36 51 0 51-70 0-129-49-197t-134-68Z"/><glyph unicode="Ä" horiz-adv-x="1570" d="M355 594h581l1-145H353l2 145ZM514 66q0-30-20-48T431 0H110Q68 0 48 18T27 66q0 22 10 37t34 30l21 13q33 20 52 50t41 103l257 831q18 59 13 86t-41 44q-28 14-39 31t-12 43q0 31 21 48t64 18h640q43 0 63-17t21-49q0-27-12-44t-36-28q-25-12-29-32t9-64l278-881q21-66 38-97t44-44q35-18 46-34t12-44q0-30-20-48t-64-18H909q-44 0-64 18t-20 48q0 25 12 40t39 27l32 15q26 12 23 32t-18 66l-296 979 42 31-288-932q-16-51-16-82t19-53 63-44l27-14q23-12 36-26t14-39Zm25 1409q-87 0-139 46t-52 127q0 81 52 127t139 47q89 0 140-46t51-128q0-79-51-126t-140-47Zm461 0q-88 0-140 46t-52 127q0 80 52 127t140 47q90 0 141-46t52-128q0-79-51-126t-142-47Z"/><glyph unicode="Å" horiz-adv-x="1570" d="M355 594h581l1-145H353l2 145ZM514 66q0-30-20-48T431 0H110Q68 0 48 18T27 66q0 22 10 37t34 30l21 13q33 20 52 50t41 103l257 831q18 59 13 86t-41 44q-28 14-39 31t-12 43q0 31 21 48t64 18h640q43 0 63-17t21-49q0-27-12-44t-36-28q-25-12-29-32t9-64l278-881q21-66 38-97t44-44q35-18 46-34t12-44q0-30-20-48t-64-18H909q-44 0-64 18t-20 48q0 25 12 40t39 27l32 15q26 12 23 32t-18 66l-296 979 42 31-288-932q-16-51-16-82t19-53 63-44l27-14q23-12 36-26t14-39Zm269 1405q-104 0-175 49t-71 144q0 94 71 143t175 49q108 0 178-50t70-142q0-91-70-142t-178-51Zm2 299q-31 0-49-26t-19-80q0-54 18-81t50-28q31 0 49 28t18 81q0 54-18 80t-49 26Z"/><glyph unicode="Æ" horiz-adv-x="2079" d="m1073 1400-63-146h-90L407 324q-37-66-23-111t62-68l28-14q23-12 36-26t14-39q0-30-20-48T441 0H96Q53 0 33 18T13 66q0 38 44 67l21 13q28 17 58 57t62 96l463 831q29 52 20 82t-49 48q-27 13-39 31t-12 43q0 31 20 48t64 18h408ZM452 670h544l1-145H451l1 145Zm765 110h261q63 0 90 25t48 97q17 62 71 62 52 0 66-58l79-317q16-69-38-88-58-20-92 28-33 47-60 71t-60 34-85 9h-280v137ZM927 218v1182h702q46 0 75 9t56 18 61 9q44 0 66-25t39-81l86-285q10-35 0-58t-41-35q-36-12-63 0t-46 46q-44 81-83 132t-78 79-82 40-96 11h-133V260q0-60 30-90t86-30h47q75 0 132 24t111 89 113 190q15 32 40 43t56 5q34-7 50-31t5-63l-94-327q-15-54-38-80t-71-26q-30 0-55 9t-56 18-76 9H871q-43 0-63 18t-21 48q0 53 51 73l38 14q26 9 38 24t13 41Z"/><glyph unicode="Ç" horiz-adv-x="1441" d="M1383 403q0-80-41-158t-120-143T1034-1 787-40q-224 0-387 93T148 312 59 693q0 161 53 297t148 237 223 157 276 56q93 0 151-16t93-33 59-17q29 0 48 16t38 31 50 15q24 0 40-16t27-53l103-356q9-31-7-55t-47-32q-33-7-60 5t-43 47q-51 121-112 188t-128 94-136 27q-73 0-130-35t-98-101-61-160-22-212q0-192 51-320t142-192 210-64q104 0 191 54t144 160q17 32 36 41t43 6q23-4 32-19t10-40ZM714 14h98l-79-153-68 15q23 6 50 9t71 3q107 0 162-43t56-119q0-83-67-132t-195-50q-105 0-167 33t-69 75q-1 22 12 35t32 15q16 2 29-4t28-15q23-19 44-28t47-10q68 0 68 85 0 36-20 55t-61 20h-25q-26 0-33 15t4 37l83 157Z"/><glyph unicode="È" horiz-adv-x="1381" d="M519 780h260q63 0 90 25t48 97q10 33 28 47t44 15q52 0 65-58l79-317q9-36 0-57t-38-31q-27-10-51-3t-41 31q-32 47-59 71t-60 34-85 9H519v137ZM88 1334q0 31 20 48t64 18h759q46 0 75 9t56 18 61 9q44 0 66-25t39-81l85-285q11-35 1-58t-42-35q-35-12-62 0t-46 46q-44 81-83 132t-78 79-82 40-96 11H692V260q0-60 30-90t86-30h47q74 0 132 24t111 89 113 190q15 32 40 43t56 5q34-7 49-31t6-63l-94-327q-16-54-39-80t-70-26q-31 0-56 9t-55 18-76 9H172q-43 0-63 18T88 66q0 53 51 73l39 14q26 9 38 24t13 41v964q0 25-12 40t-39 25l-39 14q-51 20-51 73Zm650 408 98-179q12-19 16-36t-8-34q-13-13-35-15t-42 5l-185 68q-75 27-119 63t-55 100q-12 51 19 102t97 62q70 14 121-24t93-112Z"/><glyph unicode="É" horiz-adv-x="1381" d="M519 780h260q63 0 90 25t48 97q10 33 28 47t44 15q52 0 65-58l79-317q9-36 0-57t-38-31q-27-10-51-3t-41 31q-32 47-59 71t-60 34-85 9H519v137ZM88 1334q0 31 20 48t64 18h759q46 0 75 9t56 18 61 9q44 0 66-25t39-81l85-285q11-35 1-58t-42-35q-35-12-62 0t-46 46q-44 81-83 132t-78 79-82 40-96 11H692V260q0-60 30-90t86-30h47q74 0 132 24t111 89 113 190q15 32 40 43t56 5q34-7 49-31t6-63l-94-327q-16-54-39-80t-70-26q-31 0-56 9t-55 18-76 9H172q-43 0-63 18T88 66q0 53 51 73l39 14q26 9 38 24t13 41v964q0 25-12 40t-39 25l-39 14q-51 20-51 73Zm632 408q40 73 92 111t122 25q64-11 95-62t21-102q-11-63-54-99t-121-64l-184-68q-21-7-43-5t-34 15q-13 16-9 33t16 37l99 179Z"/><glyph unicode="Ê" horiz-adv-x="1381" d="M519 780h260q63 0 90 25t48 97q10 33 28 47t44 15q52 0 65-58l79-317q9-36 0-57t-38-31q-27-10-51-3t-41 31q-32 47-59 71t-60 34-85 9H519v137ZM88 1334q0 31 20 48t64 18h759q46 0 75 9t56 18 61 9q44 0 66-25t39-81l85-285q11-35 1-58t-42-35q-35-12-62 0t-46 46q-44 81-83 132t-78 79-82 40-96 11H692V260q0-60 30-90t86-30h47q74 0 132 24t111 89 113 190q15 32 40 43t56 5q34-7 49-31t6-63l-94-327q-16-54-39-80t-70-26q-31 0-56 9t-55 18-76 9H172q-43 0-63 18T88 66q0 53 51 73l39 14q26 9 38 24t13 41v964q0 25-12 40t-39 25l-39 14q-51 20-51 73Zm700 329H596l323-169q63-34 99-4 14 11 16 33t-23 47l-195 217q-31 32-57 51t-67 19q-40 0-66-19t-58-51l-194-217q-24-25-22-47t15-33q37-30 98 4l323 169Z"/><glyph unicode="Ë" horiz-adv-x="1381" d="M519 780h260q63 0 90 25t48 97q10 33 28 47t44 15q52 0 65-58l79-317q9-36 0-57t-38-31q-27-10-51-3t-41 31q-32 47-59 71t-60 34-85 9H519v137ZM88 1334q0 31 20 48t64 18h759q46 0 75 9t56 18 61 9q44 0 66-25t39-81l85-285q11-35 1-58t-42-35q-35-12-62 0t-46 46q-44 81-83 132t-78 79-82 40-96 11H692V260q0-60 30-90t86-30h47q74 0 132 24t111 89 113 190q15 32 40 43t56 5q34-7 49-31t6-63l-94-327q-16-54-39-80t-70-26q-31 0-56 9t-55 18-76 9H172q-43 0-63 18T88 66q0 53 51 73l39 14q26 9 38 24t13 41v964q0 25-12 40t-39 25l-39 14q-51 20-51 73Zm372 141q-87 0-139 46t-52 127q0 81 52 127t139 47q89 0 140-46t51-128q0-79-51-126t-140-47Zm461 0q-88 0-140 46t-52 127q0 80 52 127t140 47q90 0 141-46t52-128q0-79-51-126t-142-47Z"/><glyph unicode="Ì" horiz-adv-x="920" d="M692 218q0-25 13-40t38-25l38-14q51-20 51-73 0-30-20-48T748 0H172q-43 0-63 18T88 66q0 53 51 73l39 14q26 9 38 24t13 41v964q0 25-12 40t-39 25l-39 14q-51 20-51 73 0 31 20 48t64 18h576q43 0 63-17t21-49q0-53-51-73l-38-14q-25-9-38-24t-13-41V218ZM506 1742l98-179q12-19 16-36t-8-34q-13-13-35-15t-42 5l-185 68q-75 27-119 63t-55 100q-12 51 19 102t97 62q70 14 121-24t93-112Z"/><glyph unicode="Í" horiz-adv-x="920" d="M692 218q0-25 13-40t38-25l38-14q51-20 51-73 0-30-20-48T748 0H172q-43 0-63 18T88 66q0 53 51 73l39 14q26 9 38 24t13 41v964q0 25-12 40t-39 25l-39 14q-51 20-51 73 0 31 20 48t64 18h576q43 0 63-17t21-49q0-53-51-73l-38-14q-25-9-38-24t-13-41V218ZM488 1742q40 73 92 111t122 25q64-11 95-62t21-102q-11-63-54-99t-121-64l-184-68q-21-7-43-5t-34 15q-13 16-9 33t16 37l99 179Z"/><glyph unicode="Î" horiz-adv-x="920" d="M692 218q0-25 13-40t38-25l38-14q51-20 51-73 0-30-20-48T748 0H172q-43 0-63 18T88 66q0 53 51 73l39 14q26 9 38 24t13 41v964q0 25-12 40t-39 25l-39 14q-51 20-51 73 0 31 20 48t64 18h576q43 0 63-17t21-49q0-53-51-73l-38-14q-25-9-38-24t-13-41V218ZM556 1663H364l323-169q63-34 99-4 14 11 16 33t-23 47l-195 217q-31 32-57 51t-67 19q-40 0-66-19t-58-51l-194-217q-24-25-22-47t15-33q37-30 98 4l323 169Z"/><glyph unicode="Ï" horiz-adv-x="920" d="M692 218q0-25 13-40t38-25l38-14q51-20 51-73 0-30-20-48T748 0H172q-43 0-63 18T88 66q0 53 51 73l39 14q26 9 38 24t13 41v964q0 25-12 40t-39 25l-39 14q-51 20-51 73 0 31 20 48t64 18h576q43 0 63-17t21-49q0-53-51-73l-38-14q-25-9-38-24t-13-41V218ZM229 1475q-87 0-139 46t-52 127q0 81 52 127t139 47q89 0 140-46t51-128q0-79-51-126t-140-47Zm461 0q-88 0-140 46t-52 127q0 80 52 127t140 47q90 0 141-46t52-128q0-79-51-126t-142-47Z"/><glyph unicode="Ð" horiz-adv-x="1669" d="M53 704q0 22 15 35t37 14h717q23 0 38-13t15-36q0-24-15-37t-38-14H103q-21 0-35 13t-15 38ZM88 66q0 53 51 73l39 14q26 10 38 25t13 40v964q0 25-12 40t-39 25l-39 14q-51 20-51 73 0 31 20 48t64 18h620q184 0 334-55t259-155 167-238 59-305q0-187-89-333T1271 84 888 0H172q-43 0-63 18T88 66Zm743 74q85 0 154 52t109 165 41 296q0 144-26 256t-78 191-125 119-166 41h-48V249q0-57 29-83t83-26h27Z"/><glyph unicode="Ñ" horiz-adv-x="1540" d="M546 66q0-30-20-47T463 0H150q-42 1-63 18T66 66q0 51 57 76l22 10q46 21 65 48t19 86v751q0 37-6 57t-33 54l-77 105q-22 30-30 47t-9 37q0 30 20 46t54 17h341q39 0 64-13t50-50l646-915-59-174v866q0 56-17 84t-67 50l-21 10q-57 28-57 76 0 31 20 48t63 18h313q43 0 63-17t21-49q0-50-57-76l-22-10q-45-20-64-47t-20-87V364q0-39 6-69t25-55l62-87q26-33 31-50t5-37q0-30-20-48t-55-18h-392q-64 0-64 52 0 18-7 35t-41 63l-650 919 140 87V285q0-54 17-82t67-51l21-10q56-26 56-76Zm410 1420q-46 0-84 15t-71 37-62 36-56 16q-55 0-74-79-14-35-52-35-53 0-53 70 0 129 49 196t135 68q46 0 84-15t70-36 62-36 56-16q58 0 74 78 14 36 54 36 51 0 51-70 0-129-49-197t-134-68Z"/><glyph unicode="Ò" horiz-adv-x="1606" d="M797 1439q175 0 313-53t236-152 148-236 51-307q0-153-50-286t-147-233-232-155-307-56q-174 0-312 53T261 166 112 402 60 709q0 153 51 286t147 233 232 155 307 56Zm273-1023q0 134-21 263t-59 241-84 198-99 134-103 49q-54 0-90-36t-55-106-19-174q0-135 21-264t59-241 84-198 98-134 104-49q55 0 91 36t54 106 19 175ZM849 1742l98-179q12-19 16-36t-8-34q-13-13-35-15t-42 5l-185 68q-75 27-119 63t-55 100q-12 51 19 102t97 62q70 14 121-24t93-112Z"/><glyph unicode="Ó" horiz-adv-x="1606" d="M797 1439q175 0 313-53t236-152 148-236 51-307q0-153-50-286t-147-233-232-155-307-56q-174 0-312 53T261 166 112 402 60 709q0 153 51 286t147 233 232 155 307 56Zm273-1023q0 134-21 263t-59 241-84 198-99 134-103 49q-54 0-90-36t-55-106-19-174q0-135 21-264t59-241 84-198 98-134 104-49q55 0 91 36t54 106 19 175ZM832 1742q40 73 92 111t122 25q64-11 95-62t21-102q-11-63-54-99t-121-64l-184-68q-21-7-43-5t-34 15q-13 16-9 33t16 37l99 179Z"/><glyph unicode="Ô" horiz-adv-x="1606" d="M797 1439q175 0 313-53t236-152 148-236 51-307q0-153-50-286t-147-233-232-155-307-56q-174 0-312 53T261 166 112 402 60 709q0 153 51 286t147 233 232 155 307 56Zm273-1023q0 134-21 263t-59 241-84 198-99 134-103 49q-54 0-90-36t-55-106-19-174q0-135 21-264t59-241 84-198 98-134 104-49q55 0 91 36t54 106 19 175ZM898 1663H706l323-169q63-34 99-4 14 11 16 33t-23 47l-195 217q-31 32-57 51t-67 19q-40 0-66-19t-58-51l-194-217q-24-25-22-47t15-33q37-30 98 4l323 169Z"/><glyph unicode="Õ" horiz-adv-x="1606" d="M797 1439q175 0 313-53t236-152 148-236 51-307q0-153-50-286t-147-233-232-155-307-56q-174 0-312 53T261 166 112 402 60 709q0 153 51 286t147 233 232 155 307 56Zm273-1023q0 134-21 263t-59 241-84 198-99 134-103 49q-54 0-90-36t-55-106-19-174q0-135 21-264t59-241 84-198 98-134 104-49q55 0 91 36t54 106 19 175ZM938 1486q-46 0-84 15t-71 37-62 36-56 16q-55 0-74-79-14-35-52-35-53 0-53 70 0 129 49 196t135 68q46 0 84-15t70-36 62-36 56-16q58 0 74 78 14 36 54 36 51 0 51-70 0-129-49-197t-134-68Z"/><glyph unicode="Ö" horiz-adv-x="1606" d="M797 1439q175 0 313-53t236-152 148-236 51-307q0-153-50-286t-147-233-232-155-307-56q-174 0-312 53T261 166 112 402 60 709q0 153 51 286t147 233 232 155 307 56Zm273-1023q0 134-21 263t-59 241-84 198-99 134-103 49q-54 0-90-36t-55-106-19-174q0-135 21-264t59-241 84-198 98-134 104-49q55 0 91 36t54 106 19 175ZM572 1475q-87 0-139 46t-52 127q0 81 52 127t139 47q89 0 140-46t51-128q0-79-51-126t-140-47Zm461 0q-88 0-140 46t-52 127q0 80 52 127t140 47q90 0 141-46t52-128q0-79-51-126t-142-47Z"/><glyph unicode="×" horiz-adv-x="1109" d="M188 299q-61 54 2 113l615 653q26 25 57 25t62-27q31-27 31-52t-30-54L311 303q-30-26-61-29t-62 25Zm738 1q-28-26-63-24t-58 24L189 956q-28 25-28 54t30 53q56 53 117 0l621-660q25-23 25-50t-28-53Z"/><glyph unicode="Ø" horiz-adv-x="1606" d="M221-73q-18 10-21 27t10 33l1077 1472q11 16 29 18t36-9q17-12 20-28t-6-30L287-63q-13-18-30-20t-36 10Zm576 1512q175 0 313-53t236-152 148-236 51-307q0-153-50-286t-147-233-232-155-307-56q-174 0-312 53T261 166 112 402 60 709q0 153 51 286t147 233 232 155 307 56Zm273-1023q0 134-21 263t-59 241-84 198-99 134-103 49q-54 0-90-36t-55-106-19-174q0-135 21-264t59-241 84-198 98-134 104-49q55 0 91 36t54 106 19 175Z"/><glyph unicode="Ù" horiz-adv-x="1531" d="m1202 620-37 498q-4 57-24 88t-62 42l-28 8q-39 11-55 28t-16 49q0 30 20 48t58 19h372q38 0 58-18t21-49q0-31-17-47t-55-29l-27-9q-58-18-76-51t-14-89l40-483q5-53 7-104t3-106q0-129-62-232T1118 21 788-39q-202 0-336 55T251 173t-67 241q0 17 1 43t3 71 8 117l35 536q2 29-9 43t-47 23l-40 9q-71 17-71 77 0 30 20 48t59 19h636q38 0 58-18t21-49q0-31-17-49t-54-27l-42-10q-25-6-36-21t-14-44l-34-543q-4-61-5-113t-1-87q0-170 66-244t184-75q94 0 162 36t106 104 37 160q0 71-2 115t-6 85ZM943 1742l98-179q12-19 16-36t-8-34q-13-13-35-15t-42 5l-185 68q-75 27-119 63t-55 100q-12 51 19 102t97 62q70 14 121-24t93-112Z"/><glyph unicode="Ú" horiz-adv-x="1531" d="m1202 620-37 498q-4 57-24 88t-62 42l-28 8q-39 11-55 28t-16 49q0 30 20 48t58 19h372q38 0 58-18t21-49q0-31-17-47t-55-29l-27-9q-58-18-76-51t-14-89l40-483q5-53 7-104t3-106q0-129-62-232T1118 21 788-39q-202 0-336 55T251 173t-67 241q0 17 1 43t3 71 8 117l35 536q2 29-9 43t-47 23l-40 9q-71 17-71 77 0 30 20 48t59 19h636q38 0 58-18t21-49q0-31-17-49t-54-27l-42-10q-25-6-36-21t-14-44l-34-543q-4-61-5-113t-1-87q0-170 66-244t184-75q94 0 162 36t106 104 37 160q0 71-2 115t-6 85ZM925 1742q40 73 92 111t122 25q64-11 95-62t21-102q-11-63-54-99t-121-64l-184-68q-21-7-43-5t-34 15q-13 16-9 33t16 37l99 179Z"/><glyph unicode="Û" horiz-adv-x="1531" d="m1202 620-37 498q-4 57-24 88t-62 42l-28 8q-39 11-55 28t-16 49q0 30 20 48t58 19h372q38 0 58-18t21-49q0-31-17-47t-55-29l-27-9q-58-18-76-51t-14-89l40-483q5-53 7-104t3-106q0-129-62-232T1118 21 788-39q-202 0-336 55T251 173t-67 241q0 17 1 43t3 71 8 117l35 536q2 29-9 43t-47 23l-40 9q-71 17-71 77 0 30 20 48t59 19h636q38 0 58-18t21-49q0-31-17-49t-54-27l-42-10q-25-6-36-21t-14-44l-34-543q-4-61-5-113t-1-87q0-170 66-244t184-75q94 0 162 36t106 104 37 160q0 71-2 115t-6 85ZM993 1663H801l323-169q63-34 99-4 14 11 16 33t-23 47l-195 217q-31 32-57 51t-67 19q-40 0-66-19t-58-51l-194-217q-24-25-22-47t15-33q37-30 98 4l323 169Z"/><glyph unicode="Ü" horiz-adv-x="1531" d="m1202 620-37 498q-4 57-24 88t-62 42l-28 8q-39 11-55 28t-16 49q0 30 20 48t58 19h372q38 0 58-18t21-49q0-31-17-47t-55-29l-27-9q-58-18-76-51t-14-89l40-483q5-53 7-104t3-106q0-129-62-232T1118 21 788-39q-202 0-336 55T251 173t-67 241q0 17 1 43t3 71 8 117l35 536q2 29-9 43t-47 23l-40 9q-71 17-71 77 0 30 20 48t59 19h636q38 0 58-18t21-49q0-31-17-49t-54-27l-42-10q-25-6-36-21t-14-44l-34-543q-4-61-5-113t-1-87q0-170 66-244t184-75q94 0 162 36t106 104 37 160q0 71-2 115t-6 85Zm-536 855q-87 0-139 46t-52 127q0 81 52 127t139 47q89 0 140-46t51-128q0-79-51-126t-140-47Zm461 0q-88 0-140 46t-52 127q0 80 52 127t140 47q90 0 141-46t52-128q0-79-51-126t-142-47Z"/><glyph unicode="Ý" horiz-adv-x="1418" d="m924 432-373-50-392 792q-20 40-34 55t-37 25l-27 12q-21 10-32 28t-11 40q0 31 20 48t64 18h568q43 0 63-17t21-49q0-55-51-72l-27-9q-30-11-35-30t13-63l264-615-149-70 296 639q21 46 11 83t-60 58l-23 11q-17 8-29 25t-12 43q0 31 20 48t64 18h289q43 0 63-17t20-49q0-24-10-39t-31-27l-16-9q-19-10-36-26t-37-48-47-89L924 432Zm-427 86 464 1V218q0-25 12-40t38-25l39-14q51-20 51-73 0-30-20-48t-64-18H441q-43 0-63 18t-21 48q0 53 51 73l39 14q26 9 38 24t12 41v300Zm362 1224q40 73 92 111t122 25q64-11 95-62t21-102q-11-63-54-99t-121-64l-184-68q-21-7-43-5t-34 15q-13 16-9 33t16 37l99 179Z"/><glyph unicode="Þ" horiz-adv-x="1544" d="M506 1006v119h402q170 0 301-50t206-145 75-229q0-131-74-221t-210-136-323-47q-91 0-154 11t-115 34-107 54l15 102q40-25 76-44t79-29 102-10q91 0 147 63t57 220q0 144-64 226t-199 82H506Zm176-788q0-29 15-41t35-24l39-21q23-16 37-31t14-40q0-28-20-44T738 0H172q-43 0-63 18T88 66q0 48 51 73l40 14q23 9 36 22t14 43v964q0 29-13 42t-37 23l-40 14q-51 25-51 73 0 31 20 48t64 18h566q43 0 63-16t21-45q0-25-14-39t-37-32l-39-21q-20-11-35-23t-15-42V218Z"/><glyph unicode="ß" horiz-adv-x="1553" d="M1514 364q0 133-62 229t-183 149-298 53l-18-33q146 14 248 62t157 127 54 182q0 92-54 169t-174 125-314 48q-226 0-371-74t-216-205-70-297v-39l53 68H118q-35 0-55-14t-20-40q0-26 19-43t52-28l47-17q19-7 33-18t14-42V200q0-30-13-48t-34-23l-37-10q-55-14-55-65 0-24 19-39t55-15h383q48 0 69 25t21 68v864q0 193 58 295t168 103q77 0 122-56t45-156q0-68-15-127t-58-105-123-75q-48-22-64-41t-16-43q0-34 21-50t68-30q88-17 152-65t100-122 36-174q0-92-30-129t-75-37q-40 0-70 25t-58 90l-34 68q-15 25-34 42t-51 18q-28 0-45-20t-17-52V51q0-31 19-52t53-22q20 0 41 10t43 24 41 24 34 9q15 0 41-18t71-38 115-19q101 0 182 48t130 137 48 210Z"/><glyph unicode="à" horiz-adv-x="1198" d="M663 136v23h-32v648q0 38-20 61t-56 23q-26 0-45-12t-20-35V735q0-83-57-129t-164-46q-90 0-134 38T91 705q0 66 59 131t180 110 302 44q211 0 314-77t103-212V223q0-20 9-32t30-12q17 0 27 9t20 18q7 7 14 12t17 5q17 0 24-12t7-31q0-44-31-92t-95-82-158-34q-111 0-180 47t-70 117ZM54 213q0 136 123 215t348 80q59 0 102-8t72-23l-34-85q-21 12-39 17t-41 5q-49 0-77-33t-29-95q0-65 28-98t74-34q29 0 54 13t39 32l24-78Q650 50 559 11T364-28q-139 0-224 69T54 213Zm610 1122 72-201q10-19 13-37t-12-34q-14-13-37-14t-44 8l-179 104q-74 38-112 79t-47 103q-8 54 27 104t107 58q78 11 128-37t84-133Z"/><glyph unicode="á" horiz-adv-x="1198" d="M663 136v23h-32v648q0 38-20 61t-56 23q-26 0-45-12t-20-35V735q0-83-57-129t-164-46q-90 0-134 38T91 705q0 66 59 131t180 110 302 44q211 0 314-77t103-212V223q0-20 9-32t30-12q17 0 27 9t20 18q7 7 14 12t17 5q17 0 24-12t7-31q0-44-31-92t-95-82-158-34q-111 0-180 47t-70 117ZM54 213q0 136 123 215t348 80q59 0 102-8t72-23l-34-85q-21 12-39 17t-41 5q-49 0-77-33t-29-95q0-65 28-98t74-34q29 0 54 13t39 32l24-78Q650 50 559 11T364-28q-139 0-224 69T54 213Zm548 1122q34 85 83 133t129 37q70-8 105-58t28-104q-7-61-45-102t-113-80l-178-104q-22-9-45-8t-36 14q-16 15-13 33t13 38l72 201Z"/><glyph unicode="â" horiz-adv-x="1198" d="M663 136v23h-32v648q0 38-20 61t-56 23q-26 0-45-12t-20-35V735q0-83-57-129t-164-46q-90 0-134 38T91 705q0 66 59 131t180 110 302 44q211 0 314-77t103-212V223q0-20 9-32t30-12q17 0 27 9t20 18q7 7 14 12t17 5q17 0 24-12t7-31q0-44-31-92t-95-82-158-34q-111 0-180 47t-70 117ZM54 213q0 136 123 215t348 80q59 0 102-8t72-23l-34-85q-21 12-39 17t-41 5q-49 0-77-33t-29-95q0-65 28-98t74-34q29 0 54 13t39 32l24-78Q650 50 559 11T364-28q-139 0-224 69T54 213Zm647 1075H505l331-228q28-19 55-19t45 14q14 13 14 34t-21 49l-200 261q-29 34-57 53t-69 19q-41 0-69-19t-58-53l-200-261q-22-27-22-48t15-35q18-13 45-13t56 18l331 228Z"/><glyph unicode="ã" horiz-adv-x="1198" d="M663 136v23h-32v648q0 38-20 61t-56 23q-26 0-45-12t-20-35V735q0-83-57-129t-164-46q-90 0-134 38T91 705q0 66 59 131t180 110 302 44q211 0 314-77t103-212V223q0-20 9-32t30-12q17 0 27 9t20 18q7 7 14 12t17 5q17 0 24-12t7-31q0-44-31-92t-95-82-158-34q-111 0-180 47t-70 117ZM54 213q0 136 123 215t348 80q59 0 102-8t72-23l-34-85q-21 12-39 17t-41 5q-49 0-77-33t-29-95q0-65 28-98t74-34q29 0 54 13t39 32l24-78Q650 50 559 11T364-28q-139 0-224 69T54 213Zm685 842q-46 0-85 19t-73 46-63 45-58 20q-31 0-48-23t-28-74q-14-37-53-37-55 0-55 72 0 141 51 214t138 74q47 0 86-19t72-45 62-45 58-20q33 0 50 24t26 74q15 35 55 35 54 0 54-70 0-142-51-216t-138-74Z"/><glyph unicode="ä" horiz-adv-x="1198" d="M663 136v23h-32v648q0 38-20 61t-56 23q-26 0-45-12t-20-35V735q0-83-57-129t-164-46q-90 0-134 38T91 705q0 66 59 131t180 110 302 44q211 0 314-77t103-212V223q0-20 9-32t30-12q17 0 27 9t20 18q7 7 14 12t17 5q17 0 24-12t7-31q0-44-31-92t-95-82-158-34q-111 0-180 47t-70 117ZM54 213q0 136 123 215t348 80q59 0 102-8t72-23l-34-85q-21 12-39 17t-41 5q-49 0-77-33t-29-95q0-65 28-98t74-34q29 0 54 13t39 32l24-78Q650 50 559 11T364-28q-139 0-224 69T54 213Zm314 832q-89 0-141 47t-52 130q0 84 52 131t141 48q90 0 141-47t52-132q0-81-51-129t-142-48Zm467 0q-89 0-142 47t-53 130q0 83 53 131t142 48q91 0 143-47t52-132q0-81-52-129t-143-48Z"/><glyph unicode="å" horiz-adv-x="1198" d="M663 136v23h-32v648q0 38-20 61t-56 23q-26 0-45-12t-20-35V735q0-83-57-129t-164-46q-90 0-134 38T91 705q0 66 59 131t180 110 302 44q211 0 314-77t103-212V223q0-20 9-32t30-12q17 0 27 9t20 18q7 7 14 12t17 5q17 0 24-12t7-31q0-44-31-92t-95-82-158-34q-111 0-180 47t-70 117ZM54 213q0 136 123 215t348 80q59 0 102-8t72-23l-34-85q-21 12-39 17t-41 5q-49 0-77-33t-29-95q0-65 28-98t74-34q29 0 54 13t39 32l24-78Q650 50 559 11T364-28q-139 0-224 69T54 213Zm548 828q-110 0-185 54t-75 156q0 101 75 154t185 54q114 0 187-55t74-153q0-99-73-154t-188-56Zm2 329q-37 0-60-30t-24-89q0-59 23-89t61-31q38 0 60 31t23 89q0 59-22 89t-61 30Z"/><glyph unicode="æ" horiz-adv-x="1709" d="M662 400q-22 13-42 17t-47 5q-44 0-70-34t-27-100q0-71 29-108t77-37q43 0 77 23t55 53l70-78Q738 66 633 20T392-26q-158 0-244 69T61 222q0 133 123 210t349 78q56 0 96-8t67-24l-34-78Zm998 189q0-56-37-87t-107-31H949v88h246q55 0 55 52 0 129-33 185t-77 57q-34 0-61-23t-43-78-16-149q0-188 82-277t221-90q78 0 141 34t97 94q39 31 58 28 13-1 25-11t12-33q0-101-59-186T1430 26t-250-52q-179 0-301 60T694 201t-63 243v358q0 38-20 60t-54 23q-29 0-49-16t-20-42v-81q0-80-57-129t-160-49q-81 0-124 36t-44 107q0 63 56 127t165 107 270 43q106 0 188-32t139-100l-72-8q66 66 153 103t191 38q146 0 250-54t161-144 56-202Z"/><glyph unicode="ç" horiz-adv-x="1110" d="M1048 684q0-76-57-128t-152-53q-93 0-139 49t-47 127v34q0 64-26 101t-71 38q-35 0-65-26t-50-80-19-136q0-117 39-195t109-118 156-40q65 0 117 16t102 62q28 25 42 34t29 9q19 0 28-19t10-48q0-90-59-167T830 19 584-28q-152 0-273 60T120 201 49 454q0 155 68 276t194 192 295 70q137 0 236-41t152-111 54-156ZM523 14h98l-79-153-68 15q23 6 50 9t71 3q107 0 162-43t56-119q0-83-67-132t-195-50q-105 0-167 33t-69 75q-1 22 12 35t32 15q16 2 29-4t28-15q23-19 44-28t47-10q68 0 68 85 0 36-20 55t-61 20h-25q-26 0-33 15t4 37l83 157Z"/><glyph unicode="è" horiz-adv-x="1116" d="M1067 605q0-68-37-106t-107-38H330v102h267q54 0 54 51 0 128-29 183t-77 55q-35 0-63-26t-44-80-17-137q0-183 82-267t224-85q67 0 121 16t106 63q28 26 42 34t29 9q20 0 29-19t9-48q0-90-60-168T835 19 585-28q-152 0-273 60T119 201 48 455q0 162 65 282t189 188 299 67q155 0 258-50t156-137 52-200Zm-430 730 72-201q10-19 13-37t-12-34q-14-13-37-14t-44 8l-179 104q-74 38-112 79t-47 103q-8 54 27 104t107 58q78 11 128-37t84-133Z"/><glyph unicode="é" horiz-adv-x="1116" d="M1067 605q0-68-37-106t-107-38H330v102h267q54 0 54 51 0 128-29 183t-77 55q-35 0-63-26t-44-80-17-137q0-183 82-267t224-85q67 0 121 16t106 63q28 26 42 34t29 9q20 0 29-19t9-48q0-90-60-168T835 19 585-28q-152 0-273 60T119 201 48 455q0 162 65 282t189 188 299 67q155 0 258-50t156-137 52-200Zm-492 730q34 85 83 133t129 37q70-8 105-58t28-104q-7-61-45-102t-113-80l-178-104q-22-9-45-8t-36 14q-16 15-13 33t13 38l72 201Z"/><glyph unicode="ê" horiz-adv-x="1116" d="M1067 605q0-68-37-106t-107-38H330v102h267q54 0 54 51 0 128-29 183t-77 55q-35 0-63-26t-44-80-17-137q0-183 82-267t224-85q67 0 121 16t106 63q28 26 42 34t29 9q20 0 29-19t9-48q0-90-60-168T835 19 585-28q-152 0-273 60T119 201 48 455q0 162 65 282t189 188 299 67q155 0 258-50t156-137 52-200Zm-393 683H478l331-228q28-19 55-19t45 14q14 13 14 34t-21 49l-200 261q-29 34-57 53t-69 19q-41 0-69-19t-58-53l-200-261q-22-27-22-48t15-35q18-13 45-13t56 18l331 228Z"/><glyph unicode="ë" horiz-adv-x="1116" d="M1067 605q0-68-37-106t-107-38H330v102h267q54 0 54 51 0 128-29 183t-77 55q-35 0-63-26t-44-80-17-137q0-183 82-267t224-85q67 0 121 16t106 63q28 26 42 34t29 9q20 0 29-19t9-48q0-90-60-168T835 19 585-28q-152 0-273 60T119 201 48 455q0 162 65 282t189 188 299 67q155 0 258-50t156-137 52-200Zm-726 440q-89 0-141 47t-52 130q0 84 52 131t141 48q90 0 141-47t52-132q0-81-51-129t-142-48Zm467 0q-89 0-142 47t-53 130q0 83 53 131t142 48q91 0 143-47t52-132q0-81-52-129t-143-48Z"/><glyph unicode="ì" horiz-adv-x="686" d="M565 927V206q0-38 7-54t21-25l21-10q19-9 29-24t11-35q0-28-19-43T582 0H131Q98 0 79 15T60 58q0 20 10 35t29 24l23 10q14 9 20 25t7 54v483q0 32-9 44t-25 19l-22 5q-19 8-29 19t-11 33q0 22 15 36t46 26l268 93q41 13 65 19t55 7q28 0 45-17t18-46Zm-154 408 72-201q10-19 13-37t-12-34q-14-13-37-14t-44 8l-179 104q-74 38-112 79t-47 103q-8 54 27 104t107 58q78 11 128-37t84-133Z"/><glyph unicode="í" horiz-adv-x="686" d="M565 927V206q0-38 7-54t21-25l21-10q19-9 29-24t11-35q0-28-19-43T582 0H131Q98 0 79 15T60 58q0 20 10 35t29 24l23 10q14 9 20 25t7 54v483q0 32-9 44t-25 19l-22 5q-19 8-29 19t-11 33q0 22 15 36t46 26l268 93q41 13 65 19t55 7q28 0 45-17t18-46Zm-216 408q34 85 83 133t129 37q70-8 105-58t28-104q-7-61-45-102t-113-80l-178-104q-22-9-45-8t-36 14q-16 15-13 33t13 38l72 201Z"/><glyph unicode="î" horiz-adv-x="686" d="M565 927V206q0-38 7-54t21-25l21-10q19-9 29-24t11-35q0-28-19-43T582 0H131Q98 0 79 15T60 58q0 20 10 35t29 24l23 10q14 9 20 25t7 54v483q0 32-9 44t-25 19l-22 5q-19 8-29 19t-11 33q0 22 15 36t46 26l268 93q41 13 65 19t55 7q28 0 45-17t18-46Zm116 361H504l298-228q25-19 50-19t40 14q13 13 13 34t-19 49l-180 261q-26 34-51 53t-63 19q-36 0-62-19t-52-53l-180-261q-20-27-20-48t14-35q16-13 41-13t50 18l298 228Z"/><glyph unicode="ï" horiz-adv-x="686" d="M565 927V206q0-38 7-54t21-25l21-10q19-9 29-24t11-35q0-28-19-43T582 0H131Q98 0 79 15T60 58q0 20 10 35t29 24l23 10q14 9 20 25t7 54v483q0 32-9 44t-25 19l-22 5q-19 8-29 19t-11 33q0 22 15 36t46 26l268 93q41 13 65 19t55 7q28 0 45-17t18-46Zm-149 373q-71 0-112 47t-42 130q0 84 41 131t113 48q72 0 113-47t41-132q0-81-41-129t-113-48Zm374 0q-72 0-114 47t-42 130q0 83 42 131t114 48q72 0 114-47t42-132q0-81-42-129t-114-48Z"/><glyph unicode="ð" horiz-adv-x="1250" d="M1201 603q0-207-72-348T926 42 620-31q-180 0-307 70T118 233 51 521q0 130 58 237t161 172 236 65q82 0 144-26t101-75 46-120l-35-15q-14 117-65 235t-128 213-169 139q-52 25-73 48t-21 52q0 32 31 54t103 15q148-17 285-95t244-202 170-281 62-334Zm-711 20q1-122 31-223t75-162 88-61q33 0 54 23t33 68 10 115q0 124-30 215t-76 142-91 51q-32 0-53-20t-31-58-10-90Zm-233 482q-13 28-6 51t39 39l649 302q37 17 61 7t36-35q29-62-40-93l-649-303q-31-14-54-4t-36 36Z"/><glyph unicode="ñ" horiz-adv-x="1366" d="M571 904V206q0-39 6-55t21-24l20-11q33-18 33-53 0-63-75-63H131Q92 0 75 15T57 59q0 19 10 34t32 24l23 10q15 7 21 23t6 56v477q0 31-8 44t-26 18l-22 7q-21 7-30 19t-10 33q0 23 13 37t48 27l226 87q50 19 81 28t60 9q44 0 67-25t23-63Zm-36-244-59 63 31 28q140 130 239 185t184 56q129 0 202-88t86-229l46-469q4-39 8-55t18-24l23-10q22-9 32-24t10-34q0-28-17-43t-57-16H831q-75 0-75 63 0 35 33 53l20 11q15 8 23 24t4 55l-38 409q-6 64-30 95t-75 32q-31 0-63-13t-60-37l-35-32Zm305 395q-46 0-85 19t-73 46-63 45-58 20q-31 0-48-23t-28-74q-14-37-53-37-55 0-55 72 0 141 51 214t138 74q47 0 86-19t72-45 62-45 58-20q33 0 50 24t26 74q15 35 55 35 54 0 54-70 0-142-51-216t-138-74Z"/><glyph unicode="ò" horiz-adv-x="1242" d="M628 992q170 0 296-64t197-180 70-270q0-142-73-256T914 40 612-28q-169 0-295 65T120 218 49 486q0 145 74 259t204 180 301 67Zm73-878q38 9 58 53t18 128-30 215q-26 124-58 202t-70 113-79 25q-38-9-58-53t-18-128 30-215q26-123 58-202t70-113 79-25Zm-19 1221 72-201q10-19 13-37t-12-34q-14-13-37-14t-44 8l-179 104q-74 38-112 79t-47 103q-8 54 27 104t107 58q78 11 128-37t84-133Z"/><glyph unicode="ó" horiz-adv-x="1242" d="M628 992q170 0 296-64t197-180 70-270q0-142-73-256T914 40 612-28q-169 0-295 65T120 218 49 486q0 145 74 259t204 180 301 67Zm73-878q38 9 58 53t18 128-30 215q-26 124-58 202t-70 113-79 25q-38-9-58-53t-18-128 30-215q26-123 58-202t70-113 79-25Zm-80 1221q34 85 83 133t129 37q70-8 105-58t28-104q-7-61-45-102t-113-80l-178-104q-22-9-45-8t-36 14q-16 15-13 33t13 38l72 201Z"/><glyph unicode="ô" horiz-adv-x="1242" d="M628 992q170 0 296-64t197-180 70-270q0-142-73-256T914 40 612-28q-169 0-295 65T120 218 49 486q0 145 74 259t204 180 301 67Zm73-878q38 9 58 53t18 128-30 215q-26 124-58 202t-70 113-79 25q-38-9-58-53t-18-128 30-215q26-123 58-202t70-113 79-25Zm18 1174H523l331-228q28-19 55-19t45 14q14 13 14 34t-21 49l-200 261q-29 34-57 53t-69 19q-41 0-69-19t-58-53l-200-261q-22-27-22-48t15-35q18-13 45-13t56 18l331 228Z"/><glyph unicode="õ" horiz-adv-x="1242" d="M628 992q170 0 296-64t197-180 70-270q0-142-73-256T914 40 612-28q-169 0-295 65T120 218 49 486q0 145 74 259t204 180 301 67Zm73-878q38 9 58 53t18 128-30 215q-26 124-58 202t-70 113-79 25q-38-9-58-53t-18-128 30-215q26-123 58-202t70-113 79-25Zm57 941q-46 0-85 19t-73 46-63 45-58 20q-31 0-48-23t-28-74q-14-37-53-37-55 0-55 72 0 141 51 214t138 74q47 0 86-19t72-45 62-45 58-20q33 0 50 24t26 74q15 35 55 35 54 0 54-70 0-142-51-216t-138-74Z"/><glyph unicode="ö" horiz-adv-x="1242" d="M628 992q170 0 296-64t197-180 70-270q0-142-73-256T914 40 612-28q-169 0-295 65T120 218 49 486q0 145 74 259t204 180 301 67Zm73-878q38 9 58 53t18 128-30 215q-26 124-58 202t-70 113-79 25q-38-9-58-53t-18-128 30-215q26-123 58-202t70-113 79-25Zm-314 931q-89 0-141 47t-52 130q0 84 52 131t141 48q90 0 141-47t52-132q0-81-51-129t-142-48Zm467 0q-89 0-142 47t-53 130q0 83 53 131t142 48q91 0 143-47t52-132q0-81-52-129t-143-48Z"/><glyph unicode="÷" horiz-adv-x="1141" d="M576 963q-39 0-71 18t-51 50-19 67q0 37 18 67t51 48 72 18q41 0 73-18t52-48 19-67q0-36-19-67t-51-49-74-19ZM112 682q0 36 21 57t50 21h791q28 0 48-21t21-57q0-36-20-56t-49-20H182q-27 0-48 20t-22 56Zm464-536q-39 0-71 18t-51 50-19 67q0 37 18 67t51 48 72 18q41 0 73-18t52-48 19-67q0-36-19-67t-51-49-74-19Z"/><glyph unicode="ø" horiz-adv-x="1222" d="M237-84q-19 8-25 25t5 34l187 289 24 12 325 495v20l165 252q11 17 28 22t36-5q19-10 26-25t-4-32L819 721l-16-2-318-484-3-25L302-66q-24-37-65-18ZM628 992q170 0 296-64t197-180 70-270q0-142-73-256T914 40 612-28q-169 0-295 65T120 218 49 486q0 145 74 259t204 180 301 67Zm73-878q38 9 58 53t18 128-30 215q-26 124-58 202t-70 113-79 25q-38-9-58-53t-18-128 30-215q26-123 58-202t70-113 79-25Z"/><glyph unicode="ù" horiz-adv-x="1344" d="M788 200v17h-15v465q0 32-8 45t-25 18l-23 7q-21 7-30 19t-9 33q0 23 12 37t48 27l227 87q50 19 80 28t61 9q44 0 66-25t23-63V206q0-39 6-55t21-24l23-10q22-9 32-24t10-34q0-28-17-43t-57-16H964q-70 0-123 59t-53 141Zm-659 90v392q0 32-8 45t-26 18l-22 7q-21 7-30 19t-9 33q0 23 12 37t48 27l226 87q53 20 83 28t54 9q47 0 70-25t24-63V349q0-63 29-95t83-32q33 0 68 13t64 38l35 31 59-63-30-28Q719 79 615 26T425-28q-132 0-214 88t-82 230Zm596 1045 72-201q10-19 13-37t-12-34q-14-13-37-14t-44 8l-179 104q-74 38-112 79t-47 103q-8 54 27 104t107 58q78 11 128-37t84-133Z"/><glyph unicode="ú" horiz-adv-x="1344" d="M788 200v17h-15v465q0 32-8 45t-25 18l-23 7q-21 7-30 19t-9 33q0 23 12 37t48 27l227 87q50 19 80 28t61 9q44 0 66-25t23-63V206q0-39 6-55t21-24l23-10q22-9 32-24t10-34q0-28-17-43t-57-16H964q-70 0-123 59t-53 141Zm-659 90v392q0 32-8 45t-26 18l-22 7q-21 7-30 19t-9 33q0 23 12 37t48 27l226 87q53 20 83 28t54 9q47 0 70-25t24-63V349q0-63 29-95t83-32q33 0 68 13t64 38l35 31 59-63-30-28Q719 79 615 26T425-28q-132 0-214 88t-82 230Zm535 1045q34 85 83 133t129 37q70-8 105-58t28-104q-7-61-45-102t-113-80l-178-104q-22-9-45-8t-36 14q-16 15-13 33t13 38l72 201Z"/><glyph unicode="û" horiz-adv-x="1344" d="M788 200v17h-15v465q0 32-8 45t-25 18l-23 7q-21 7-30 19t-9 33q0 23 12 37t48 27l227 87q50 19 80 28t61 9q44 0 66-25t23-63V206q0-39 6-55t21-24l23-10q22-9 32-24t10-34q0-28-17-43t-57-16H964q-70 0-123 59t-53 141Zm-659 90v392q0 32-8 45t-26 18l-22 7q-21 7-30 19t-9 33q0 23 12 37t48 27l226 87q53 20 83 28t54 9q47 0 70-25t24-63V349q0-63 29-95t83-32q33 0 68 13t64 38l35 31 59-63-30-28Q719 79 615 26T425-28q-132 0-214 88t-82 230Zm634 998H567l331-228q28-19 55-19t45 14q14 13 14 34t-21 49l-200 261q-29 34-57 53t-69 19q-41 0-69-19t-58-53l-200-261q-22-27-22-48t15-35q18-13 45-13t56 18l331 228Z"/><glyph unicode="ü" horiz-adv-x="1344" d="M788 200v17h-15v465q0 32-8 45t-25 18l-23 7q-21 7-30 19t-9 33q0 23 12 37t48 27l227 87q50 19 80 28t61 9q44 0 66-25t23-63V206q0-39 6-55t21-24l23-10q22-9 32-24t10-34q0-28-17-43t-57-16H964q-70 0-123 59t-53 141Zm-659 90v392q0 32-8 45t-26 18l-22 7q-21 7-30 19t-9 33q0 23 12 37t48 27l226 87q53 20 83 28t54 9q47 0 70-25t24-63V349q0-63 29-95t83-32q33 0 68 13t64 38l35 31 59-63-30-28Q719 79 615 26T425-28q-132 0-214 88t-82 230Zm301 755q-89 0-141 47t-52 130q0 84 52 131t141 48q90 0 141-47t52-132q0-81-51-129t-142-48Zm467 0q-89 0-142 47t-53 130q0 83 53 131t142 48q91 0 143-47t52-132q0-81-52-129t-143-48Z"/><glyph unicode="ý" horiz-adv-x="1208" d="M803 199 573-178 116 765q-18 37-35 52t-44 29q-20 10-29 23t-9 35q0 27 19 42t52 16h539q32 0 51-15t19-43q0-22-11-35t-37-21l-27-8q-40-12-47-39t21-91l225-511ZM579-86l28 65 53 100 244 611q26 64 19 97t-48 46l-33 11q-25 8-37 23t-12 37q0 27 19 42t51 16h280q33 0 52-15t19-43q0-18-10-32t-34-27q-37-19-63-48t-52-93L749-39q-70-171-127-264T499-431t-166-36q-144 0-229 77T19-195q0 83 42 131t115 49q70 0 107-40t66-106l21-48q14-33 32-52t39-20q19 0 35 12t41 54 62 129Zm122 1421q34 85 83 133t129 37q70-8 105-58t28-104q-7-61-45-102t-113-80l-178-104q-22-9-45-8t-36 14q-16 15-13 33t13 38l72 201Z"/><glyph unicode="þ" horiz-adv-x="1279" d="M534 1484V-272q0-40 6-56t22-23l20-10q20-11 30-25t11-34q0-27-19-43t-53-16H100q-33 0-52 16t-19 43q0 20 10 34t30 25l22 10q14 7 20 23t7 56v1518q0 32-9 43t-24 19l-23 6q-17 8-28 19t-12 33q0 40 62 61l267 94q41 13 66 19t53 6q29 0 46-17t18-45Zm-61-804-56 57q80 120 177 186t223 66q121 0 214-59t147-165 54-250q0-162-65-283T988 42 731-26q-116 0-196 44T397 152l90 89q31-62 69-86t84-25q49 0 85 34t58 109 21 199q0 120-21 193t-58 106-85 33q-49 0-91-30t-76-94Z"/><glyph unicode="ÿ" horiz-adv-x="1208" d="M803 199 573-178 116 765q-18 37-35 52t-44 29q-20 10-29 23t-9 35q0 27 19 42t52 16h539q32 0 51-15t19-43q0-22-11-35t-37-21l-27-8q-40-12-47-39t21-91l225-511ZM579-86l28 65 53 100 244 611q26 64 19 97t-48 46l-33 11q-25 8-37 23t-12 37q0 27 19 42t51 16h280q33 0 52-15t19-43q0-18-10-32t-34-27q-37-19-63-48t-52-93L749-39q-70-171-127-264T499-431t-166-36q-144 0-229 77T19-195q0 83 42 131t115 49q70 0 107-40t66-106l21-48q14-33 32-52t39-20q19 0 35 12t41 54 62 129ZM467 1045q-89 0-141 47t-52 130q0 84 52 131t141 48q90 0 141-47t52-132q0-81-51-129t-142-48Zm467 0q-89 0-142 47t-53 130q0 83 53 131t142 48q91 0 143-47t52-132q0-81-52-129t-143-48Z"/><glyph unicode="–" horiz-adv-x="1142" d="M50 547q0 40 18 63t54 23h898q37 0 54-23t17-63q0-40-17-64t-54-24H122q-36 0-54 24t-18 64Z"/><glyph unicode="—" horiz-adv-x="1781" d="M50 547q0 40 18 63t54 23h1536q38 0 55-23t17-63q0-41-17-64t-55-24H122q-36 0-54 23t-18 65Z"/><glyph unicode="‘" horiz-adv-x="577" d="M299 1187q110 0 166-49t57-136q0-95-69-154t-166-59q-113 0-185 73t-72 212q0 122 42 221t124 166 193 97q46 11 71 3t32-34q7-22-7-43t-57-37q-74-26-121-64t-71-79-23-77q0-18 11-29t39-11h36Z"/><glyph unicode="’" horiz-adv-x="575" d="M278 1160q-110 0-166 50t-57 135q0 94 69 153t166 60q113 0 185-73t72-213q0-122-42-220T382 886t-193-97q-46-12-71-3t-33 33q-7 23 7 44t57 36q74 26 121 64t71 80 23 77q0 18-11 29t-39 11h-36Z"/><glyph unicode="‚" horiz-adv-x="580" d="M278 2Q168 2 112 52T55 187q0 95 69 154t166 59q113 0 185-73t72-213q0-121-42-220T382-272t-193-97q-46-12-71-3t-33 33q-7 23 7 44t57 37q74 26 121 64t71 79 23 77q0 18-11 29T314 2h-36Z"/><glyph unicode="“" horiz-adv-x="1149" d="M299 1188q110 0 166-49t57-136q0-95-69-154t-166-59q-113 0-185 73t-72 212q0 122 42 221t124 166 193 97q46 11 71 3t32-34q7-22-7-43t-57-37q-74-26-121-64t-71-79-23-77q0-18 11-29t39-11h36Zm572 0q110 0 166-49t57-136q0-95-69-154t-166-59q-113 0-185 73t-72 212q0 122 42 221t124 166 193 97q45 11 70 3t33-34q7-22-7-43t-57-37q-74-26-121-64t-71-79-23-77q0-18 11-29t39-11h36Z"/><glyph unicode="”" horiz-adv-x="1149" d="M850 1160q-110 0-166 50t-57 135q0 94 69 153t166 60q113 0 185-73t72-213q0-122-42-220T954 886t-194-97q-46-12-70-3t-33 33q-7 23 7 44t57 36q74 26 121 64t71 80 23 77q0 18-11 29t-39 11h-36Zm-572 0q-110 0-166 50t-57 135q0 94 69 153t166 60q113 0 185-73t72-213q0-122-42-220T382 886t-194-97q-45-12-70-3t-33 33q-7 23 7 44t57 36q74 26 121 64t71 80 23 77q0 18-11 29t-39 11h-36Z"/><glyph unicode="„" horiz-adv-x="1156" d="M850-3Q740-3 684 47t-57 135q0 95 69 154t166 59q113 0 185-73t72-212q0-122-42-221T954-277t-194-97q-46-12-70-3t-33 34q-7 22 7 43t57 37q74 26 121 64t71 79 23 77q0 18-11 29T886-3h-36ZM278-3Q168-3 112 47T55 182q0 95 69 154t166 59q113 0 185-73t72-212q0-122-42-221T382-277t-194-97q-45-12-70-3t-33 34q-7 22 7 43t57 37q74 26 121 64t71 79 23 77q0 18-11 29T314-3h-36Z"/><glyph unicode="•" horiz-adv-x="979" d="M488 153q-99 0-179 50T181 338t-47 180q0 100 47 182t127 130 180 49q102 0 182-48t127-131 48-182q0-96-47-180T670 204t-182-51Z"/><glyph unicode="‹" horiz-adv-x="740" d="M81 493q0 30 19 63t56 63q57 45 115 91t113 89 102 78 81 61q25 19 43 21t31-9q14-11 12-30t-15-44q-26-50-61-111t-80-142-107-187v115q61-105 106-185t81-142 61-114q13-24 15-43t-12-30q-13-11-31-9t-43 21q-34 24-81 60t-102 78-113 89-115 92q-36 29-55 62t-20 63Z"/><glyph unicode="›" horiz-adv-x="740" d="M659 495q0-30-19-63t-56-63q-57-45-115-91t-113-89-102-78-81-61q-25-19-43-21t-31 9Q85 49 87 68t15 44q26 50 61 111t80 142 107 187V437q-61 105-106 185t-81 142-61 114q-13 24-15 43t12 30q13 11 31 9t43-21q34-24 81-60t102-78 113-89 115-92q36-29 55-62t20-63Z"/></font>
</defs>
</svg>
